<?xml version="1.0" encoding="UTF-8"?>
<svg width="14px" height="18px" viewBox="0 0 14 18" version="1.1" xmlns="http://www.w3.org/2000/svg" xmlns:xlink="http://www.w3.org/1999/xlink">
    <!-- Generator: Sketch 51.2 (57519) - http://www.bohemiancoding.com/sketch -->
    <title>Group 7</title>
    <desc>Created with Sketch.</desc>
    <defs></defs>
    <g id="Symbols" stroke="none" stroke-width="1" fill="none" fill-rule="evenodd">
        <g id="clientes/inactive" transform="translate(-2.000000, 0.000000)">
            <g id="Group-7" transform="translate(3.000000, 0.000000)">
                <polygon id="Stroke-1" stroke="#00AF41" points="6.00029089 6 6.80490643 6.1861205 7.56006981 7.06124478 7.56006981 8.9761384 6.77988946 9.9127063 9 11.203619 9 12 3 12 3 11.203619 5.22011054 9.9127063 4.43993019 8.9761384 4.43993019 7.06124478 5.19509357 6.1861205"></polygon>
                <polyline id="Stroke-2" stroke="#00AF41" stroke-width="1.5" points="12 6.0918713 12 15.1823314 10.3079521 17 1.6920479 17 0 15.2825289 0 3.81766864 1.6920479 2 10.3079521 2 12 3.71747107 12 6.30779001"></polyline>
                <polygon id="Fill-4" fill="#00AF41" points="5 2 7 2 7 0 5 0"></polygon>
                <polygon id="Fill-5" fill="#00AF41" points="3 15 6 15 6 14 3 14"></polygon>
                <polygon id="Fill-6" fill="#00AF41" points="7 15 9 15 9 14 7 14"></polygon>
            </g>
        </g>
    </g>
</svg>