<?xml version="1.0" encoding="UTF-8"?>
<svg width="25px" height="18px" viewBox="0 0 25 18" version="1.1" xmlns="http://www.w3.org/2000/svg" xmlns:xlink="http://www.w3.org/1999/xlink">
    <!-- Generator: Sketch 49.3 (51167) - http://www.bohemiancoding.com/sketch -->
    <title>Page 1 Copy 2</title>
    <desc>Created with Sketch.</desc>
    <defs></defs>
    <g id="TUDO" stroke="none" stroke-width="1" fill="none" fill-rule="evenodd">
        <g id="Page-1-Copy-2" transform="translate(0.000000, 1.000000)" stroke="#00AF41">
            <g id="Group-5">
                <polygon id="Stroke-1" points="19.4371429 0.0714285714 12.5919048 0.0714285714 12.0710714 0.0714285714 5.22583333 0.0714285714 3.62642857 1.60742857 3.62642857 10.2142857 4.94666667 11.4822857 12.0710714 11.4822857 12.5919048 11.4822857 19.7163095 11.4822857 21.0371429 10.2142857 21.0371429 1.60742857"></polygon>
                <polygon id="Stroke-3" points="19.7161905 11.4821714 12.5917857 11.4821714 12.0709524 11.4821714 4.94714286 11.4821714 0.166190476 15.7141714 12.0709524 15.7141714 12.5917857 15.7141714 24.4965476 15.7141714"></polygon>
            </g>
            <path d="M7,5 L18,5" id="Stroke-7"></path>
            <path d="M7,8 L18,8" id="Stroke-9"></path>
            <path d="M17,14 L16,14" id="Stroke-10"></path>
            <path d="M19.625,14 L19,14" id="Stroke-11"></path>
            <path d="M16.625,13 L16,13" id="Stroke-12"></path>
            <path d="M5.625,14 L5,14" id="Stroke-13"></path>
            <path d="M16,14 L15,14" id="Stroke-14"></path>
            <path d="M14,14 L13,14" id="Stroke-15"></path>
            <path d="M11,14 L10,14" id="Stroke-16"></path>
            <path d="M10,14 L9,14" id="Stroke-17"></path>
            <path d="M7,14 L6,14" id="Stroke-18"></path>
            <path d="M7.625,13 L7,13" id="Stroke-19"></path>
            <path d="M16,13 L15,13" id="Stroke-20"></path>
            <path d="M14,13 L13,13" id="Stroke-21"></path>
            <path d="M12,13 L11,13" id="Stroke-22"></path>
            <path d="M10,13 L9,13" id="Stroke-23"></path>
        </g>
    </g>
</svg>