<?xml version="1.0" encoding="UTF-8" standalone="no"?>
<svg
   xmlns:dc="http://purl.org/dc/elements/1.1/"
   xmlns:cc="http://creativecommons.org/ns#"
   xmlns:rdf="http://www.w3.org/1999/02/22-rdf-syntax-ns#"
   xmlns:svg="http://www.w3.org/2000/svg"
   xmlns="http://www.w3.org/2000/svg"
   height="418.54001"
   width="405.35037"
   xml:space="preserve"
   viewBox="0 0 405.35037 418.54001"
   y="0px"
   x="0px"
   id="Layer_1"
   version="1.1"><metadata
   id="metadata45"><rdf:RDF><cc:Work
       rdf:about=""><dc:format>image/svg+xml</dc:format><dc:type
         rdf:resource="http://purl.org/dc/dcmitype/StillImage" /></cc:Work></rdf:RDF></metadata><defs
   id="defs43" />
<style
   id="style2"
   type="text/css">
	.st0{fill:#939598;}
</style>
<g
   transform="translate(-757.31964,-330.73)"
   id="g38">
	<path
   style="fill:#939598"
   id="path4"
   d="m 834.31,711.93 0.04,-27.89 c 17.48,0 23.9,-0.88 26.94,20.56 h 1.85 v -23.86 l -47.61,0.02 v 3.28 h 8.24 v 61.38 h -9.08 v 3.23 h 49.06 v -25.08 h -2.46 c -2.44,18.97 -7.25,21.86 -20.74,21.86 h -6.25 v -29.82 c 0.18,0 2.42,0 3.62,0 6.05,0.15 9.49,3.68 10.73,14.09 h 2.23 l -0.02,-30.83 c -0.04,0.06 -2.19,0 -2.19,0 0,0.15 -0.43,13.26 -11.01,13.07 h -3.35 z"
   class="st0" />
	<path
   style="fill:#939598"
   id="path6"
   d="M 814.86,713.16 H 788 v 3.04 h 9.2 v 22.07 c -1.55,5.61 -9.81,7.95 -12.27,7.95 -17.16,0 -15.93,-25.1 -15.93,-31.82 0,-6.14 -0.61,-31.83 15.93,-31.83 11.66,0 17.79,11.61 20.25,22.03 h 1.86 c 0,-4.29 0.07,-24.73 0.03,-24.68 0.04,-0.16 -7.99,5.76 -8.02,5.67 0.18,-0.04 -3.67,-5.49 -14.12,-5.49 -20.25,0 -27.67,20.2 -27.61,34.3 0.09,12.9 6.04,34.87 27.61,34.87 6.78,0 11.56,-3.45 14.12,-7.37 0.03,-0.08 8.55,6.73 8.58,6.75 V 716.2 h 7.24 v -3.04 z"
   class="st0" />
	<path
   style="fill:#939598"
   id="path8"
   d="m 1128.71,723.57 c -2.44,18.97 -7.25,21.81 -20.74,21.81 h -0.82 v -61.36 h 8.58 v -3.31 h -28.21 v 3.31 h 8.58 v 0 61.36 h -6.81 l -25.06,-66.5 h -3.69 c 0.08,-0.04 -20.82,60.34 -20.86,60.52 0.04,-0.18 -1.58,5.18 -5.02,5.84 -3.17,0.15 -2.94,-1.5 -2.94,-2.08 v -11.63 c 0,-3.05 -0.23,-9.99 -3.4,-13.17 -3.55,-3.58 -9.63,-3.84 -9.49,-3.98 0,0 15.41,-3.18 15.41,-17.83 0,-10.27 -7.14,-15.37 -19.07,-15.82 H 981.3 v 3.3 h 8.67 v 61.37 c 0,0 -8.49,0 -8.67,0 v 3.26 h 27.79 v -3.26 c -0.18,0 -8.67,0 -8.67,0 v -29.51 c -0.05,0 10.94,0 11.56,0 20.05,1.65 -3.44,32.8 22.83,32.77 h 16.56 v -3.28 c -0.92,0 -6.99,0.17 -7.37,-4.05 -0.25,-3.06 3.99,-14.04 3.99,-14.04 h 22.54 c -0.01,-0.04 7.01,18.1 7.08,18.1 h -7.86 v 3.26 h 61.42 v -25.08 z m -117.23,-11.13 h -11.02 V 684 h 14.09 c 8.27,1.25 8.61,10.81 8.61,13.85 0,7.36 -3.08,14.59 -11.68,14.59 z m 38.03,11.72 9.79,-29.35 10.44,29.35 z"
   class="st0" />
	<path
   style="fill:#939598"
   id="path10"
   d="m 947.88,684 c 17.48,0 23.94,-0.84 26.98,20.6 h 1.85 V 680.74 H 907.3 V 684 h 1.82 c 2.45,0 8.26,0.18 8.6,5.3 v 0 39.15 L 885.25,680.74 H 867.57 V 684 h 2.94 c 3.48,0 8.38,0.16 8.6,5.3 v 50.16 c 0,4.9 -7.33,6.75 -10.39,6.75 h -0.04 v 2.44 h 23.92 v -2.44 c -3.06,0 -10.44,-1.86 -10.44,-6.75 l 0.08,-44.16 c 12.86,18.37 37.12,53.38 37.34,53.35 h 1.21 V 689.3 c 0.34,-5.12 6.15,-5.3 8.6,-5.3 h 7.97 v 61.42 h -9.09 v 3.23 h 49.07 v -25.08 h -2.46 c -2.44,18.97 -7.25,21.86 -20.74,21.86 h -6.25 v -29.82 c 0.18,0 2.42,0 3.62,0 6.05,0.15 9.49,3.68 10.73,14.09 h 2.23 l -0.02,-30.83 c -0.04,0.06 -2.19,0 -2.19,0 0,0.15 -0.43,13.26 -11.01,13.07 h -3.36 V 684 Z"
   class="st0" />
	<polygon
   style="fill:#939598"
   id="polygon12"
   points="1134.33,680.7 1134.33,684.01 1143.03,684.01 1143.06,745.35 1134.33,745.35 1134.33,748.66 1162.02,748.66 1162.02,745.35 1153.33,745.35 1153.33,684.01 1162.02,684.01 1162.02,680.7 "
   class="st0" />
	<path
   style="fill:#939598"
   id="path14"
   d="m 1088.9,638.82 8.58,-3.24 0.13,-0.04 c 12.17,-5.04 13.9,-8.19 13.33,-16.28 v -32.72 c 9.26,23.52 18.02,40.05 35.97,40.05 2.44,0 5.05,-0.3 7.85,-0.94 l 7,-1.58 -4.82,-5.31 c -3.07,-3.39 -4.57,-6.03 -6.29,-9.07 -0.71,-1.25 -1.44,-2.54 -2.32,-3.97 -4.2,-6.82 -14.19,-9.13 -22.29,-5.5 -3.67,-7.29 -7.37,-16.8 -11.82,-28.53 l -0.97,-2.23 c -0.76,-1.75 -1.54,-3.52 -2.32,-5.28 v -0.29 h -0.13 c -2.76,-6.19 -5.7,-12.41 -9.21,-18.24 -3.19,-5.29 -6.45,-9.85 -9.93,-13.95 -9.36,-11 -21.75,-17.83 -36.84,-20.33 -10.43,-1.72 -17.81,-2.08 -27.16,-2.54 -1.94,-0.09 -3.96,-0.2 -6.12,-0.31 -4.23,-0.23 -12.97,-0.95 -21.43,-1.64 -5.7,-0.46 -11.55,-0.94 -16.14,-1.28 0.31,-1.29 0.49,-2.63 0.49,-4.02 0,-1.87 -0.17,-3.53 -0.5,-5.02 h 59.99 c 15.46,0 26.66,-6.84 33.32,-20.3 15.38,-0.14 26.49,-7.12 33.06,-20.72 h 2.14 c 16,0 27.45,-7.3 34.02,-21.71 l 2.71,-5.93 H 945.93 c -13.35,0 -24.73,8.71 -28.98,22.19 l -0.13,0.47 c -3.46,-9.64 -9.78,-17.82 -17.89,-22.63 -11.27,-6.71 -24.09,-8.96 -34.31,-6.02 -3.38,0.98 -6.74,2.5 -9.47,4.3 -2.34,1.55 -5.63,4.03 -8.02,7.08 -2.6,3.33 -5.11,7.36 -6.95,11.13 -1.17,0.96 -2.08,1.95 -2.71,2.9 l -2.44,4.57 -0.13,0.26 c -2.91,6.58 -6.46,11.13 -9.21,14.35 -2.74,3.19 -2.88,6.23 -2.51,8.21 0.41,2.17 1.57,3.94 2.81,5.27 l -0.07,0.13 c -0.81,1.4 -1.24,3 -1.24,4.62 0,5.36 4.67,9.42 10.41,9.42 4.17,0 7.58,-1.95 11.19,-4.34 1.47,-0.97 5.35,-3.55 6.62,-3.69 1.61,0 3.07,1.46 3.07,3.07 0,4.39 -5.67,6.76 -9.73,7.06 l -8.25,0.88 c -5.94,0.56 -8.76,3.71 -8.76,6.52 0,2.83 1.36,4.42 2.3,5.36 l 0.61,0.63 2.09,1.86 -8.76,14.1 c -6.24,-5.78 -13.54,-9.28 -20.02,-9.48 -4.19,-0.14 -7.8,1.12 -10.47,3.64 -0.77,0.73 -1.45,1.57 -2.02,2.49 -0.05,0 -0.1,0 -0.15,0 -6.92,0 -12.48,3.7 -15.21,7.86 -2.96,4.55 -1.9,12.42 1.86,18.42 l -22.1,5.74 v 105.64 h 405.31 v -21.06 h -73.77 z m 52.28,-28.72 c 0.8,1.3 1.49,2.52 2.16,3.69 0.82,1.45 1.62,2.86 2.57,4.34 -6.36,-0.4 -11.18,-3.92 -15.65,-10.59 4.11,-1.43 9.09,-0.41 10.92,2.56 z m -87.73,-90.47 c 13.07,2.15 23.77,8.04 31.81,17.48 1.72,2.02 3.38,4.18 5.01,6.5 -21.99,-2.88 -29.64,-6.09 -41.93,-24.75 1.63,0.21 3.32,0.47 5.11,0.77 z m -9.49,-31.48 h -41.25 c 3.53,-3.11 6.49,-7.09 8.88,-11.9 h 56.06 c -5.27,8.07 -12.91,11.9 -23.69,11.9 z m 32.84,-20.29 h -41.25 c 3.65,-3.2 6.69,-7.33 9.11,-12.35 h 56.13 c -5.28,8.4 -13.01,12.35 -23.99,12.35 z m 2.8,-31.6 h 55.89 c -5.24,7.38 -12.69,10.87 -23.01,10.87 h -41.26 c 3.29,-2.89 6.09,-6.51 8.38,-10.87 z m -225.84,2.16 c 1.32,-1.69 3.46,-3.55 6.03,-5.25 2.01,-1.32 4.62,-2.5 7.17,-3.24 4.05,-1.17 8.71,-1.24 13.52,-0.32 l -14.82,9.14 c -1.85,-0.19 -3.66,-0.29 -5.4,-0.29 -2.52,0 -4.83,0.2 -6.95,0.54 0.15,-0.19 0.29,-0.4 0.45,-0.58 z m -17.32,65.45 c 0.13,-0.58 0.59,-1.04 1.09,-1.03 l 7.22,0.23 c 8.81,-0.31 17.77,-3.93 18.78,-13.1 0,-6.21 -4.41,-12.25 -10.63,-12.25 -3.32,0 -7.07,2.3 -11.27,5.08 -2.74,1.82 -4.91,3.25 -6.54,3.25 -1.11,0 -2.01,-0.74 -2.01,-1.35 0,-0.1 0.02,-0.21 0.05,-0.31 l 4.62,-6.18 -3.99,-2.68 c -0.85,-0.56 -2.17,-1.61 -2.32,-2.39 -0.07,-0.37 0.46,-1.03 0.64,-1.23 1.65,-1.93 3.54,-4.28 5.46,-7.17 1.18,-1.65 1.86,-2.56 3.83,-2.56 1.95,0 3.54,1.56 3.54,3.48 0,1.27 1.4,2.27 3.13,2.27 1.73,0 2.51,-1.23 3.58,-2.27 0,0 4.12,-3.77 1.94,-5.56 -2.49,-2.04 -12.45,2.12 -9.68,-7.03 l 0.69,-1.31 c 1.07,-1.41 5.83,-4.94 15.68,-4.94 1.86,0 3.83,0.13 5.84,0.38 l 1.47,0.19 20.9,-12.89 c 0.18,0.44 0.24,0.75 0.24,0.75 v 0 l 0.02,0.13 c 1.09,6.33 -2.9,13.85 -9.27,17.51 l -2.55,1.46 1.65,9.43 c -5.37,1.64 -9.11,5.95 -9.11,11.12 0,1.78 0.41,3.89 0.94,6.56 0.58,2.97 1.24,6.32 1.41,9.73 0,9.81 -13.53,16.3 -24.98,15.93 l -0.29,-0.01 c -0.47,-0.02 -7.76,-0.59 -9.55,-2 -0.35,-0.23 -0.63,-0.8 -0.53,-1.24 z m -51.79,30.8 c 1.65,-2.52 5.43,-4.7 10.16,-3.88 l 3.58,0.62 1.13,-3.45 c 0.3,-0.93 0.71,-1.61 1.27,-2.14 1.01,-0.95 2.51,-1.4 4.42,-1.34 5.06,0.16 11.39,3.68 16.53,9.2 1.87,2 3.53,4.33 5.01,6.68 0.29,0.5 0.61,1.03 0.91,1.49 0.41,0.66 0.76,1.19 0.83,1.32 0.18,0.32 2.72,4.14 2.55,4.38 1.74,-2.44 3.47,-4.88 5.21,-7.31 0.05,-0.07 -0.03,-0.3 -0.17,-0.61 -0.39,-0.84 -1.31,-2.29 -1.86,-3.15 -0.13,-0.21 -0.27,-0.42 -0.4,-0.63 -0.01,-0.01 -0.02,-0.04 -0.03,-0.05 -0.05,-0.09 -0.29,-0.45 -0.59,-0.93 -0.58,-0.9 -1.41,-2.22 -1.78,-2.94 l 10.95,-17.5 c 2.73,0.57 5.06,0.66 6.16,0.66 h 0.27 c 15.43,0 31.4,-8.9 31.4,-23.8 v -0.36 c -0.19,-4.06 -0.95,-7.93 -1.56,-11.04 -0.4,-2.05 -0.78,-3.98 -0.78,-4.95 0,-1.63 2.29,-3.45 5.58,-3.45 h 5 l -2.26,-12.93 c 7.03,-5.17 11.34,-13.58 11.12,-21.63 7.57,5.8 12.9,15.87 13.88,26.58 0.29,3.11 -0.33,7.46 -1.33,12.03 l -0.54,1.91 0.09,0.03 c -1.79,7.46 -4.43,15.15 -5.82,18.78 l -1.29,3.37 3.14,1.78 c 5.63,3.19 9.09,5.52 9.09,12.94 0,8.51 -7.65,15.02 -15.05,16.41 l -10.11,1.89 8.55,5.71 c 2.74,1.83 4.38,4.81 4.38,7.97 0,5.34 -4.54,9.69 -10.13,9.69 h -3.22 l -0.91,2.96 c -3.14,10.23 -6.55,15.23 -17.52,16.3 0.51,-3.11 0.86,-6.1 0.86,-10.33 0,-0.99 -0.09,-3.78 -0.13,-4.67 l -0.49,-9.53 -6.7,6.81 c -2.28,2.31 -6.31,4.15 -10.74,5.02 v -8.32 l -47.96,-12.45 -17.06,4.43 c -3.82,-3.82 -4.59,-10.11 -3.64,-11.57 z m -13.79,104.15 34.48,-8.97 34.47,8.97 z m 74.03,-7.34 -39.55,-10.29 -39.56,10.29 v -70.75 l 39.56,-10.27 39.55,10.27 z m 18.4,-13.76 c -3.57,5.13 -4,12.22 -1.32,21.1 h -8.68 v -67.76 c 3.11,-0.47 6.46,-1.36 9.57,-2.79 -0.17,2.96 -0.58,5.29 -1.13,8.41 -0.13,0.73 -0.26,1.48 -0.39,2.29 l -0.83,4.89 h 4.97 c 7.43,0 12.97,-1.16 17.23,-3.36 v 28.29 c 0,0.73 -0.56,1.31 -1.25,1.31 h -1.26 c -7.39,0.01 -13.55,2.78 -16.91,7.62 z m 91.14,1.82 c -3.04,3.48 -5.99,9.55 -4.08,19.29 h -51.37 c 5.52,-0.54 9.53,-1.84 12.3,-4.71 3.36,-3.5 3.66,-8.28 3.55,-11.7 0.11,-0.3 0.67,-1.45 3.18,-2.59 l 4.43,-2.02 -2.65,-4.09 c -4.39,-6.75 -2.48,-21.49 -0.78,-29.5 0.13,0 0.27,0 0.4,0 17.42,0 28.69,-3.62 40.56,-7.44 3.1,-1 6.3,-2.02 9.67,-3.01 l 0.1,-0.04 c 0.07,-0.02 3.54,-1.12 8.27,-2.23 l 16.75,27.6 0.15,0.23 c 1.67,2.38 1.88,3.95 -1.16,7.49 l -8.39,9.06 -13.76,-2.56 -0.13,-0.02 c -6.21,-0.94 -12.9,1.5 -17.04,6.24 z m 4.52,19.28 c -1.51,-5.94 -0.9,-10.68 1.81,-13.77 2.59,-2.97 6.57,-3.87 9.38,-3.46 l 15.95,2.96 0.4,0.07 h 2.22 l 11.27,-12.15 0.1,-0.11 c 1.93,-2.24 7.78,-9.04 1.81,-17.7 l -15.06,-24.82 c 2.49,-0.35 5,-0.58 7.31,-0.58 l 0.1,-0.01 c 0.08,0.01 7.63,-0.1 15.72,4.61 1.09,2.35 2.62,5.45 4.32,8.89 3.16,6.41 7.1,14.39 8.2,17.61 0.35,1.01 1.41,4.09 -2.36,8 l -28.87,30.47 h -32.3 z m 98.41,0 h -54.56 l 23.38,-24.68 c 4.72,-4.88 6.23,-10.75 4.24,-16.51 -1.13,-3.32 -4.22,-9.69 -7.44,-16.22 9.28,4.31 23.35,8.19 51.99,10.5 3.45,0.29 4.36,1.46 5.04,4.59 l 1.25,12.36 -14.96,3.34 c -5.01,0.99 -8.95,4.29 -10.81,9.06 -2.04,5.27 -1.34,11.47 1.87,17.56 z m 5.97,-14.51 c 0.82,-2.12 2.43,-3.46 4.64,-3.88 l 22.41,-5 -2.03,-19.98 -0.07,-0.43 c -0.55,-2.62 -2.22,-10.59 -12.63,-11.45 -40.05,-3.23 -49.34,-9.17 -59.08,-15.46 -0.01,-0.03 -0.03,-0.06 -0.04,-0.09 l -0.06,0.03 -0.63,-0.41 c -10.4,-6.73 -20.73,-6.78 -21.75,-6.76 -11.34,0.01 -25.7,4.5 -26.87,4.87 -3.46,1.02 -6.7,2.06 -9.84,3.06 -12.54,4.03 -23.38,7.53 -41.58,6.98 l -3.32,-0.1 -0.86,3.21 c -0.66,2.47 -5.75,22.59 -0.83,35.52 -4.41,3.47 -4.4,7.49 -4.38,8.02 0.18,4.42 -0.86,5.51 -1.21,5.87 -2.1,2.18 -9.08,2.46 -14.95,2.46 -0.02,0 -0.05,0 -0.07,0 h -2.14 l -1.26,1.73 c -3.62,4.99 -11.44,6.15 -16.46,4.88 -2.21,-6.7 -2.26,-11.83 -0.14,-14.89 2.51,-3.61 7.83,-4 10,-4 h 1.26 c 5.32,0 9.65,-4.35 9.65,-9.7 v -36.02 c 1.62,-2.5 2.92,-5.39 4.06,-8.63 8.79,-1.4 15.52,-8.86 15.52,-17.83 0,-3.44 -1.02,-6.77 -2.85,-9.61 8.12,-3.91 15.07,-11.9 15.07,-22.38 0,-10.47 -5.27,-15.28 -10.28,-18.42 1.41,-4.02 3.74,-11.09 5.32,-18.21 l 7.03,-25.19 c 3.15,-9.88 11.36,-16.26 20.95,-16.26 h 123.86 c -5.24,7.38 -12.69,10.87 -23,10.87 h -74.96 l -3.91,8.38 h 67.17 c -5.28,8.39 -13.01,12.35 -23.98,12.35 h -48.71 l -3.91,8.39 h 43.46 c -5.26,8.08 -12.91,11.9 -23.68,11.9 H 951.7 l -3.91,8.38 h 27.83 c 0.25,0.35 0.95,1.62 0.95,5.02 0,5.38 -4.53,9.77 -10.1,9.77 -1.91,0 -3.54,-0.44 -6.41,-1.61 -1.23,-0.52 -2.46,-1.04 -3.69,-1.56 l -6.46,5.8 c 1.21,0.52 2.42,1.03 3.62,1.54 v 0 c 5.59,2.42 8.71,3.69 12.94,3.69 5.13,0 9.74,-2.12 13.02,-5.51 4.77,0.31 12.46,0.94 19.91,1.55 8.91,0.73 17.31,1.42 21.66,1.65 2.18,0.12 4.21,0.22 6.17,0.31 3.69,0.18 7.07,0.35 10.45,0.59 16.91,27.45 25.57,31.06 58.31,34.98 2.36,4.22 4.49,8.7 6.51,13.19 v 53.45 l 0.01,0.31 c 0.18,2.46 0.18,3.29 -0.15,3.74 -1.13,1.49 -6.19,3.6 -7.95,4.32 l -27.6,10.4 c -3.62,-4.92 -4.94,-10.1 -3.48,-13.83 z"
   class="st0" />
	<polygon
   style="fill:#939598"
   id="polygon16"
   points="809.7,573.39 836.13,580.26 836.13,571.6 809.7,564.73 "
   class="st0" />
	<polygon
   style="fill:#939598"
   id="polygon18"
   points="800.98,564.73 774.55,571.6 774.55,580.26 800.98,573.39 "
   class="st0" />
	<polygon
   style="fill:#939598"
   id="polygon20"
   points="800.98,582.14 774.55,589 774.55,597.67 800.98,590.81 "
   class="st0" />
	<polygon
   style="fill:#939598"
   id="polygon22"
   points="809.7,590.81 836.13,597.67 836.13,589 809.7,582.14 "
   class="st0" />
	<polygon
   style="fill:#939598"
   id="polygon24"
   points="809.7,608.22 836.13,615.08 836.13,606.42 809.7,599.55 "
   class="st0" />
	<polygon
   style="fill:#939598"
   id="polygon26"
   points="800.98,599.55 774.55,606.42 774.55,615.08 800.98,608.22 "
   class="st0" />
	<path
   style="fill:#939598"
   id="path28"
   d="m 801.97,336.03 c 0,2.71 -1.21,4.07 -3.63,4.07 -0.83,0 -1.58,-0.28 -2.26,-0.84 -0.68,-0.56 -1.02,-1.2 -1.02,-1.9 0,-0.24 0.09,-0.6 0.27,-1.11 0.18,-0.5 0.27,-0.9 0.27,-1.19 0,-0.77 -0.41,-1.15 -1.24,-1.15 -0.71,0 -1.39,0.37 -2.04,1.11 -0.65,0.74 -0.97,1.49 -0.97,2.26 0,0.18 0.15,1.18 0.44,3.01 0.3,1.83 0.44,3.22 0.44,4.16 0,4.01 -1.39,7.37 -4.16,10.09 -2.77,2.71 -6.22,4.07 -10.35,4.07 -1.06,0 -3.01,-0.44 -5.84,-1.33 -0.77,-0.23 -1.27,-0.35 -1.51,-0.35 -1.24,0 -2.36,0.5 -3.36,1.5 -1,1 -1.5,2.09 -1.5,3.27 0,3.07 1.86,4.6 5.57,4.6 1.42,0 3.69,-0.27 6.81,-0.8 2.42,-0.41 4.63,-0.62 6.64,-0.62 3.6,0 6.41,0.94 8.45,2.83 2.04,1.89 3.05,4.51 3.05,7.87 0,5.07 -2.17,9.29 -6.5,12.65 -4.34,3.36 -9.81,5.04 -16.41,5.04 -4.9,0 -8.75,-0.99 -11.55,-2.96 -2.8,-1.98 -4.2,-4.71 -4.2,-8.19 0,-3.36 1.3,-5.9 3.89,-7.61 1.3,-0.83 3.36,-1.56 6.19,-2.21 -4.19,-1.65 -6.28,-4.19 -6.28,-7.61 0,-4.25 2.71,-7.2 8.14,-8.85 -3.54,-2.77 -5.31,-6.43 -5.31,-10.97 0,-4.25 1.36,-7.65 4.07,-10.22 2.71,-2.57 6.28,-3.85 10.7,-3.85 2.42,0 4.38,0.33 5.88,0.97 1.5,0.65 3.26,1.95 5.26,3.89 1.89,-2.77 4.22,-4.16 6.99,-4.16 3.39,0.01 5.07,1.52 5.07,4.53 z m -9.64,42.64 c 0,-4.9 -2.88,-7.34 -8.64,-7.34 -1.65,0 -4.07,0.27 -7.28,0.8 -3.21,0.53 -5.6,0.8 -7.19,0.8 -3,1.59 -4.5,4.39 -4.5,8.41 0,3.01 1.07,5.43 3.22,7.25 2.15,1.83 4.98,2.74 8.51,2.74 4.47,0 8.23,-1.22 11.29,-3.67 3.06,-2.46 4.59,-5.45 4.59,-8.99 z m -6.82,-33.89 c 0,-8.55 -2.36,-12.83 -7.08,-12.83 -4.6,0 -6.9,3.98 -6.9,11.94 0,8.97 2.45,13.45 7.34,13.45 4.43,0.01 6.64,-4.18 6.64,-12.56 z"
   class="st0" />
	<path
   style="fill:#939598"
   id="path30"
   d="m 829.02,336.94 c 0,1.36 -0.41,2.49 -1.23,3.38 -0.84,0.89 -1.9,1.33 -3.2,1.33 -1.06,0 -1.95,-0.31 -2.66,-0.93 -0.7,-0.62 -1.06,-1.41 -1.06,-2.36 0,-0.83 0.27,-1.54 0.8,-2.13 0.53,-0.59 0.8,-1 0.8,-1.24 0,-0.89 -0.65,-1.33 -1.95,-1.33 -1.66,0 -3.08,1.03 -4.26,3.09 -1.36,2.42 -2.04,6.9 -2.04,13.42 v 17.5 c 0,0.71 0.26,1.15 0.75,1.33 0.5,0.18 2.03,0.3 4.57,0.36 0.65,0.12 0.98,0.36 0.98,0.7 0,0.42 -0.39,0.62 -1.15,0.62 -1.37,0 -2.64,0 -3.83,0 -1.19,0 -3.43,0 -6.74,0 -1.71,0 -2.96,0 -3.73,0 -0.77,0 -1.74,0 -2.93,0 -0.95,0 -1.42,-0.17 -1.42,-0.53 0,-0.36 0.39,-0.53 1.15,-0.53 h 1.24 c 2.01,0 3.19,-0.23 3.55,-0.71 0.12,-0.23 0.17,-1.34 0.17,-3.31 v -24.53 c 0,-3.27 -0.48,-5.16 -1.46,-5.67 -0.98,-0.51 -2.53,-0.79 -4.66,-0.85 -0.71,0 -1.07,-0.2 -1.07,-0.62 0,-0.42 0.3,-0.62 0.9,-0.62 h 0.61 c 0.89,0 1.79,0.04 2.67,0.13 0.89,0.09 1.26,0.13 1.15,0.13 2.18,0 4.61,-0.62 7.27,-1.87 l 1.16,-0.53 0.7,-0.27 c 0.23,1.42 0.36,2.85 0.36,4.26 v 1.77 c 1.9,-4.03 4.56,-6.04 7.99,-6.04 1.9,0 3.47,0.58 4.71,1.73 1.24,1.15 1.86,2.61 1.86,4.32 z"
   class="st0" />
	<path
   style="fill:#939598"
   id="path32"
   d="m 875.53,367.48 c 0,0.42 -0.65,0.65 -1.96,0.71 -4.62,0.3 -8.67,1.3 -12.16,3.02 -0.24,0.11 -0.45,0.17 -0.62,0.17 -0.36,0 -0.54,-0.23 -0.54,-0.71 v -4.97 c -2.69,3.78 -6.49,5.68 -11.36,5.68 -4.34,0 -7.46,-1.26 -9.33,-3.79 -0.77,-1.05 -1.21,-2.02 -1.37,-2.91 -0.14,-0.88 -0.21,-3.26 -0.21,-7.14 v -20.19 c 0,-2.06 -0.12,-3.26 -0.36,-3.62 -0.23,-0.35 -1.04,-0.56 -2.4,-0.61 h -1.15 c -1.6,0.11 -2.4,-0.12 -2.4,-0.71 0,-0.42 0.5,-0.62 1.51,-0.62 1.06,0 2.6,0.08 4.61,0.23 1.01,0.08 1.6,0.12 1.77,0.12 2.07,0 4,-0.12 5.77,-0.36 v 24.66 c 0,4.54 0.3,7.54 0.89,9.02 0.95,2.3 2.88,3.44 5.77,3.44 3.13,0 5.45,-1.3 6.93,-3.89 1.06,-1.89 1.6,-4.89 1.6,-9.01 l -0.03,-21.13 c -0.05,-0.88 -0.38,-1.4 -0.71,-1.54 -0.33,-0.15 -0.99,-0.22 -2,-0.22 -2.49,0.06 -3.84,-0.2 -3.84,-0.8 0,-0.36 0.62,-0.53 1.87,-0.53 h 0.81 c 0.47,0 2.04,0 4.7,0 3.55,0 5.74,0 6.57,0 v 24.77 c 0,4.26 0.09,6.96 0.27,8.09 0.17,1.12 0.62,1.78 1.36,1.95 0.73,0.17 2.39,0.27 4.96,0.27 0.7,0 1.05,0.22 1.05,0.62 z"
   class="st0" />
	<path
   style="fill:#939598"
   id="path34"
   d="m 915.48,350.8 c 0,5.92 -1.67,10.86 -5.03,14.82 -3.36,3.97 -7.53,5.95 -12.52,5.95 -3.92,0 -6.95,-1.42 -9.09,-4.25 V 388 c 0,1.3 0.05,2.07 0.13,2.31 0.09,0.23 0.38,0.45 0.86,0.62 0.9,0.17 2.64,0.27 5.21,0.27 0.72,0 1.08,0.27 1.08,0.8 0,0.42 -0.39,0.62 -1.15,0.62 h -1.69 c -0.41,0 -1.09,0 -2.04,0 -0.89,0 -1.65,0 -2.31,0 -0.36,0 -1.34,0 -2.93,0 -1.66,0 -2.91,0 -3.73,0 h -4.7 c -1.72,0 -2.58,-0.21 -2.58,-0.65 0,-0.57 0.36,-0.86 1.07,-0.86 h 2.66 c 1.71,0 2.63,-0.38 2.75,-1.15 0.05,-0.36 0.08,-3.08 0.08,-8.17 v -44.21 c 0,-1.66 -0.8,-2.43 -2.4,-2.31 -2.37,0 -3.61,0 -3.72,0 -0.53,0 -0.8,-0.22 -0.8,-0.66 0,-0.57 0.64,-0.85 1.95,-0.85 3.25,0.05 6.21,-0.71 8.88,-2.32 0.78,-0.47 1.37,-0.7 1.79,-0.7 0.47,0 0.78,0.21 0.93,0.66 0.14,0.44 0.26,1.79 0.31,4.04 2.19,-3.14 5.34,-4.7 9.42,-4.7 5.15,0 9.36,1.88 12.65,5.63 3.28,3.76 4.92,8.56 4.92,14.43 z m -7.89,0.04 c 0,-4.63 -0.71,-8.57 -2.14,-11.83 -1.91,-4.51 -4.85,-6.76 -8.83,-6.76 -2.08,0 -3.87,0.72 -5.36,2.17 -1.49,1.46 -2.29,3.22 -2.41,5.29 -0.12,2.61 -0.09,8.1 0.09,16.47 0.06,4.2 0.14,6.74 0.27,7.6 0.12,0.87 0.51,1.74 1.16,2.63 1.72,2.43 3.96,3.64 6.69,3.64 3.09,0 5.41,-1.3 6.96,-3.91 2.37,-3.97 3.57,-9.07 3.57,-15.3 z"
   class="st0" />
	<path
   style="fill:#939598"
   id="path36"
   d="m 955.71,351.33 c 0,5.74 -1.74,10.55 -5.23,14.42 -3.5,3.88 -7.84,5.81 -13.06,5.81 -5.39,0 -9.88,-1.94 -13.5,-5.81 -3.61,-3.88 -5.42,-8.68 -5.42,-14.42 0,-5.92 1.76,-10.83 5.28,-14.74 3.52,-3.91 7.92,-5.86 13.19,-5.86 5.33,0 9.77,1.97 13.35,5.9 3.59,3.93 5.39,8.83 5.39,14.7 z m -8.08,-0.1 c 0,-6.51 -1.01,-11.57 -3.02,-15.18 -1.48,-2.66 -3.97,-4 -7.46,-4 -3.32,0 -5.91,1.7 -7.77,5.11 -1.86,3.4 -2.8,8.12 -2.8,14.16 0,5.98 0.99,10.64 2.98,13.99 1.98,3.35 4.74,5.02 8.3,5.02 2.71,0 4.73,-1.04 6.03,-3.11 2.49,-3.91 3.74,-9.23 3.74,-15.99 z"
   class="st0" />
</g>
</svg>