<?xml version="1.0" encoding="UTF-8" standalone="no"?>
<svg
   xmlns:dc="http://purl.org/dc/elements/1.1/"
   xmlns:cc="http://creativecommons.org/ns#"
   xmlns:rdf="http://www.w3.org/1999/02/22-rdf-syntax-ns#"
   xmlns:svg="http://www.w3.org/2000/svg"
   xmlns="http://www.w3.org/2000/svg"
   height="118.98597"
   width="963.44"
   xml:space="preserve"
   viewBox="0 0 963.44 118.98597"
   y="0px"
   x="0px"
   id="Layer_1"
   version="1.1"><metadata
   id="metadata57"><rdf:RDF><cc:Work
       rdf:about=""><dc:format>image/svg+xml</dc:format><dc:type
         rdf:resource="http://purl.org/dc/dcmitype/StillImage" /></cc:Work></rdf:RDF></metadata><defs
   id="defs55" />
<style
   id="style2"
   type="text/css">
	.st0{fill:#939598;}
</style>
<g
   transform="translate(-478.28,-480.50403)"
   id="g50">
	<polyline
   style="fill:#939598"
   id="polyline4"
   points="724.35,543.03 713.54,540.22 713.54,543.77 724.35,546.58  "
   class="st0" />
	<polyline
   style="fill:#939598"
   id="polyline6"
   points="699.15,546.58 709.97,543.77 709.97,540.22 699.15,543.03  "
   class="st0" />
	<polyline
   style="fill:#939598"
   id="polyline8"
   points="699.15,553.7 709.97,550.9 709.97,547.35 699.15,550.15  "
   class="st0" />
	<polyline
   style="fill:#939598"
   id="polyline10"
   points="724.35,550.15 713.54,547.35 713.54,550.9 724.35,553.7  "
   class="st0" />
	<polyline
   style="fill:#939598"
   id="polyline12"
   points="724.35,557.29 713.54,554.47 713.54,558.02 724.35,560.83  "
   class="st0" />
	<polyline
   style="fill:#939598"
   id="polyline14"
   points="699.15,560.83 709.97,558.02 709.97,554.47 699.15,557.29  "
   class="st0" />
	<path
   style="fill:#939598"
   id="path16"
   d="m 981.5,527.31 0.05,-39.16 c 24.56,0 33.57,-1.23 37.84,28.88 h 2.59 v -33.51 l -66.86,0.03 v 4.61 h 11.58 v 86.19 h -12.76 v 4.54 h 68.9 v -35.22 h -3.45 c -3.43,26.63 -10.18,30.68 -29.12,30.68 h -8.77 v -41.87 c 0.25,0 3.39,0 5.09,0 8.49,0.2 13.33,5.16 15.07,19.78 h 3.12 l -0.03,-43.3 c -0.06,0.09 -3.08,0 -3.08,0 0,0.22 -0.6,18.62 -15.47,18.36 h -4.7 z"
   class="st0" />
	<path
   style="fill:#939598"
   id="path18"
   d="m 954.19,529.03 h -37.72 v 4.28 h 12.92 v 31 c -2.18,7.87 -13.78,11.15 -17.23,11.15 -24.1,0 -22.38,-35.25 -22.38,-44.69 0,-8.62 -0.86,-44.71 22.38,-44.71 16.36,0 24.97,16.3 28.43,30.95 h 2.61 c 0,-6.03 0.1,-34.73 0.04,-34.66 0.06,-0.23 -11.22,8.1 -11.27,7.96 0.25,-0.05 -5.15,-7.71 -19.82,-7.71 -28.44,0 -38.86,28.38 -38.78,48.17 0.13,18.11 8.48,48.97 38.78,48.97 9.52,0 16.23,-4.84 19.82,-10.35 0.04,-0.12 12,9.45 12.05,9.48 V 533.3 h 10.17 z"
   class="st0" />
	<path
   style="fill:#939598"
   id="path20"
   d="m 1394.94,543.66 c -3.43,26.63 -10.19,30.62 -29.12,30.62 h -1.15 v -86.17 h 12.04 v -4.64 h -39.6 v 4.64 h 12.05 v 0 86.17 h -9.57 l -35.21,-93.39 h -5.17 c 0.11,-0.05 -29.24,84.74 -29.3,84.98 0.06,-0.25 -2.22,7.28 -7.05,8.22 -4.45,0.21 -4.12,-2.11 -4.12,-2.93 v -16.34 c 0,-4.28 -0.34,-14.03 -4.79,-18.49 -4.98,-5.02 -13.51,-5.4 -13.32,-5.59 0,0 21.64,-4.46 21.64,-25.03 0,-14.42 -10.03,-21.6 -26.78,-22.22 h -47.57 v 4.64 h 12.17 v 86.17 c 0,0 -11.91,0 -12.17,0 v 4.58 h 39.02 v -4.58 c -0.26,0 -12.17,0 -12.17,0 v -41.43 c -0.06,0 15.35,0 16.23,0 28.15,2.32 -4.84,46.06 32.06,46.01 h 23.26 v -4.59 c -1.29,0 -9.81,0.25 -10.34,-5.69 -0.36,-4.29 5.61,-19.71 5.61,-19.71 h 31.67 c -0.01,-0.05 9.84,25.42 9.93,25.42 h -11.05 v 4.58 h 86.27 v -35.22 h -3.47 z M 1230.3,528.03 h -15.47 v -39.94 h 19.79 c 11.61,1.76 12.09,15.18 12.09,19.45 0,10.33 -4.32,20.49 -16.41,20.49 z m 53.43,16.44 13.75,-41.21 14.65,41.21 z"
   class="st0" />
	<path
   style="fill:#939598"
   id="path22"
   d="m 1141,488.09 c 24.55,0 33.62,-1.18 37.9,28.93 h 2.59 V 483.51 H 1084 v 4.58 h 2.55 c 3.43,0 11.6,0.26 12.06,7.44 h -0.01 v 54.98 l -45.6,-67 h -24.83 v 4.58 h 4.13 c 4.89,0 11.75,0.22 12.06,7.44 v 70.44 c 0,6.87 -10.29,9.48 -14.59,9.48 h -0.04 v 3.41 h 33.59 v -3.41 c -4.3,0 -14.66,-2.62 -14.66,-9.48 l 0.11,-62.02 c 18.06,25.8 52.13,74.97 52.45,74.92 h 1.7 v -83.34 c 0.48,-7.18 8.64,-7.44 12.08,-7.44 h 11.19 v 86.25 h -12.76 v 4.54 h 68.9 v -35.22 h -3.45 c -3.43,26.63 -10.18,30.68 -29.13,30.68 H 1141 v -41.87 c 0.26,0 3.4,0 5.08,0 8.5,0.2 13.34,5.16 15.06,19.78 h 3.14 l -0.04,-43.3 c -0.05,0.09 -3.06,0 -3.06,0 0,0.22 -0.62,18.62 -15.46,18.36 H 1141 Z"
   class="st0" />
	<polygon
   style="fill:#939598"
   id="polygon24"
   points="1402.84,483.46 1402.84,488.11 1415.05,488.11 1415.09,574.24 1402.84,574.24 1402.84,578.88 1441.72,578.88 1441.72,574.24 1429.51,574.24 1429.51,488.11 1441.72,488.11 1441.72,483.46 "
   class="st0" />
	<path
   style="fill:#939598"
   id="path26"
   d="m 828.38,570.21 3.52,-1.33 0.06,-0.02 c 5,-2.07 5.71,-3.37 5.48,-6.69 v -13.45 c 3.8,9.67 7.4,16.46 14.78,16.46 1,0 2.08,-0.12 3.23,-0.38 l 2.88,-0.65 -1.98,-2.19 c -1.27,-1.39 -1.88,-2.48 -2.58,-3.72 -0.29,-0.51 -0.6,-1.04 -0.95,-1.63 -1.73,-2.8 -5.83,-3.75 -9.16,-2.26 -1.51,-3 -3.03,-6.91 -4.85,-11.73 l -0.41,-0.92 c -0.31,-0.72 -0.63,-1.44 -0.95,-2.17 v -0.12 h -0.05 c -1.13,-2.54 -2.34,-5.1 -3.79,-7.49 -1.32,-2.18 -2.65,-4.05 -4.08,-5.74 -3.85,-4.52 -8.94,-7.33 -15.14,-8.35 -4.28,-0.71 -7.31,-0.86 -11.16,-1.05 -0.8,-0.04 -1.63,-0.08 -2.51,-0.13 -1.74,-0.1 -5.34,-0.39 -8.8,-0.68 -2.35,-0.19 -4.75,-0.39 -6.64,-0.53 0.13,-0.53 0.2,-1.09 0.2,-1.66 0,-0.77 -0.07,-1.45 -0.21,-2.06 h 24.66 c 6.36,0 10.95,-2.81 13.69,-8.35 6.32,-0.06 10.89,-2.92 13.59,-8.51 h 0.88 c 6.58,0 11.28,-3 13.98,-8.93 l 1.11,-2.44 h -83.54 c -5.49,0 -10.17,3.58 -11.91,9.12 l -0.05,0.19 c -1.42,-3.96 -4.03,-7.33 -7.36,-9.3 -4.63,-2.76 -9.91,-3.68 -14.1,-2.48 -1.39,0.4 -2.77,1.03 -3.89,1.77 -0.96,0.64 -2.32,1.66 -3.3,2.91 -1.07,1.37 -2.1,3.03 -2.86,4.58 -0.48,0.39 -0.85,0.8 -1.11,1.19 l -1,1.87 -0.05,0.11 c -1.2,2.7 -2.66,4.57 -3.78,5.9 -1.13,1.31 -1.18,2.55 -1.03,3.37 0.17,0.88 0.64,1.61 1.15,2.16 l -0.03,0.05 c -0.33,0.57 -0.51,1.23 -0.51,1.9 0,2.21 1.92,3.87 4.28,3.87 1.72,0 3.12,-0.8 4.6,-1.79 0.6,-0.4 2.2,-1.46 2.72,-1.51 0.66,0 1.27,0.6 1.27,1.26 0,1.8 -2.33,2.78 -4,2.9 l -3.39,0.36 c -2.45,0.23 -3.61,1.52 -3.61,2.68 0,1.16 0.56,1.82 0.95,2.2 l 0.25,0.26 0.86,0.77 -3.6,5.8 c -2.57,-2.37 -5.56,-3.81 -8.23,-3.9 -1.72,-0.06 -3.21,0.46 -4.3,1.49 -0.31,0.31 -0.59,0.64 -0.83,1.03 -0.02,0 -0.04,0 -0.06,0 -2.84,0 -5.13,1.52 -6.25,3.23 -1.22,1.87 -0.78,5.1 0.77,7.58 l -9.08,2.36 v 43.41 H 858.7 v -8.66 h -30.32 z m 21.48,-11.8 c 0.33,0.53 0.62,1.03 0.89,1.52 0.33,0.59 0.67,1.18 1.06,1.78 -2.62,-0.16 -4.6,-1.61 -6.43,-4.35 1.68,-0.59 3.73,-0.17 4.48,1.05 z m -36.05,-37.18 c 5.37,0.89 9.77,3.31 13.08,7.18 0.7,0.83 1.38,1.72 2.06,2.67 -9.04,-1.18 -12.18,-2.49 -17.23,-10.17 0.66,0.09 1.35,0.19 2.09,0.32 z m -3.9,-12.94 h -16.96 c 1.45,-1.27 2.67,-2.91 3.65,-4.89 h 23.04 c -2.16,3.32 -5.31,4.89 -9.73,4.89 z m 13.49,-8.34 h -16.96 c 1.5,-1.31 2.75,-3.01 3.75,-5.07 h 23.07 c -2.17,3.44 -5.34,5.07 -9.86,5.07 z m 1.16,-12.99 h 22.97 c -2.15,3.03 -5.22,4.46 -9.45,4.46 h -16.96 c 1.35,-1.18 2.49,-2.66 3.44,-4.46 z m -92.82,0.89 c 0.54,-0.7 1.42,-1.46 2.47,-2.16 0.83,-0.54 1.9,-1.03 2.94,-1.33 1.67,-0.48 3.59,-0.51 5.56,-0.13 l -6.09,3.76 c -0.75,-0.08 -1.5,-0.12 -2.22,-0.12 -1.03,0 -1.98,0.08 -2.86,0.22 0.07,-0.08 0.13,-0.16 0.2,-0.24 z m -7.12,26.9 c 0.05,-0.24 0.24,-0.43 0.44,-0.42 l 2.97,0.1 c 3.62,-0.13 7.3,-1.62 7.72,-5.38 0,-2.55 -1.81,-5.04 -4.37,-5.04 -1.37,0 -2.91,0.95 -4.63,2.09 -1.12,0.75 -2.01,1.34 -2.69,1.34 -0.45,0 -0.82,-0.31 -0.82,-0.56 0,-0.04 0.01,-0.08 0.02,-0.13 l 1.9,-2.54 -1.64,-1.1 c -0.35,-0.23 -0.89,-0.66 -0.95,-0.98 -0.03,-0.15 0.19,-0.43 0.26,-0.51 0.68,-0.79 1.45,-1.76 2.24,-2.95 0.48,-0.67 0.76,-1.05 1.57,-1.05 0.8,0 1.46,0.64 1.46,1.43 0,0.52 0.57,0.93 1.28,0.93 0.71,0 1.03,-0.5 1.47,-0.93 0,0 1.69,-1.55 0.8,-2.28 -1.02,-0.84 -5.12,0.87 -3.98,-2.89 l 0.28,-0.53 c 0.44,-0.58 2.4,-2.03 6.44,-2.03 0.77,0 1.57,0.06 2.4,0.16 l 0.61,0.07 8.59,-5.3 c 0.07,0.18 0.09,0.31 0.09,0.31 v 0 l 0.01,0.05 c 0.45,2.6 -1.19,5.69 -3.81,7.2 l -1.05,0.6 0.68,3.87 c -2.21,0.67 -3.74,2.44 -3.74,4.57 0,0.73 0.17,1.6 0.38,2.7 0.24,1.22 0.51,2.6 0.59,4 0,4.03 -5.57,6.7 -10.27,6.55 h -0.12 c -0.2,-0.01 -3.2,-0.24 -3.93,-0.83 -0.13,-0.11 -0.24,-0.34 -0.2,-0.52 z m -21.29,12.66 c 0.69,-1.04 2.24,-1.93 4.18,-1.6 l 1.47,0.26 0.46,-1.42 c 0.13,-0.37 0.29,-0.66 0.52,-0.88 0.41,-0.39 1.03,-0.58 1.81,-0.56 2.08,0.07 4.68,1.52 6.79,3.79 0.77,0.82 1.45,1.77 2.06,2.74 0.12,0.2 0.26,0.42 0.38,0.62 0.17,0.27 0.31,0.49 0.34,0.54 0.07,0.13 1.12,1.7 1.05,1.8 0.71,-1 1.43,-2.01 2.14,-3.01 0.02,-0.03 -0.01,-0.12 -0.07,-0.25 -0.16,-0.35 -0.54,-0.94 -0.77,-1.29 -0.06,-0.09 -0.11,-0.18 -0.16,-0.26 0,-0.01 -0.01,-0.02 -0.01,-0.02 -0.02,-0.04 -0.12,-0.18 -0.25,-0.38 -0.23,-0.37 -0.58,-0.91 -0.73,-1.21 l 4.5,-7.19 c 1.13,0.23 2.08,0.27 2.54,0.27 h 0.11 c 6.34,0 12.9,-3.66 12.9,-9.78 v -0.15 c -0.08,-1.67 -0.39,-3.26 -0.64,-4.54 -0.16,-0.84 -0.32,-1.64 -0.32,-2.04 0,-0.67 0.95,-1.42 2.3,-1.42 h 2.05 l -0.93,-5.31 c 2.89,-2.12 4.67,-5.58 4.58,-8.89 3.11,2.38 5.3,6.52 5.7,10.92 0.12,1.28 -0.13,3.07 -0.55,4.94 l -0.22,0.79 0.04,0.01 c -0.74,3.07 -1.82,6.22 -2.39,7.72 l -0.54,1.39 1.29,0.72 c 2.31,1.31 3.74,2.27 3.74,5.32 0,3.5 -3.14,6.18 -6.19,6.74 l -4.16,0.78 3.52,2.35 c 1.12,0.75 1.79,1.98 1.79,3.28 0,2.2 -1.86,3.98 -4.16,3.98 h -1.32 l -0.38,1.22 c -1.29,4.2 -2.69,6.26 -7.19,6.69 0.2,-1.27 0.35,-2.5 0.35,-4.24 0,-0.41 -0.03,-1.55 -0.05,-1.92 l -0.2,-3.92 -2.75,2.8 c -0.94,0.96 -2.59,1.7 -4.41,2.06 v -3.42 l -19.71,-5.12 -7.01,1.82 c -1.57,-1.55 -1.89,-4.14 -1.5,-4.73 z m -5.66,42.8 14.17,-3.69 14.17,3.69 z m 30.42,-3.02 -16.26,-4.23 -16.26,4.23 v -29.08 l 16.26,-4.22 16.26,4.22 z m 7.57,-5.65 c -1.47,2.11 -1.65,5.02 -0.54,8.67 h -3.57 v -27.85 c 1.28,-0.19 2.66,-0.56 3.93,-1.14 -0.07,1.22 -0.24,2.18 -0.46,3.46 -0.05,0.3 -0.11,0.61 -0.16,0.94 l -0.35,2.01 h 2.04 c 3.05,0 5.33,-0.48 7.08,-1.38 v 11.63 c 0,0.3 -0.23,0.54 -0.51,0.54 h -0.52 c -3.03,-0.01 -5.57,1.13 -6.94,3.12 z m 37.45,0.75 c -1.25,1.43 -2.46,3.92 -1.68,7.93 h -21.11 c 2.27,-0.22 3.92,-0.76 5.06,-1.94 1.38,-1.44 1.5,-3.4 1.46,-4.8 0.05,-0.12 0.27,-0.6 1.31,-1.06 l 1.82,-0.83 -1.09,-1.68 c -1.8,-2.77 -1.02,-8.83 -0.32,-12.12 0.06,0 0.11,0 0.16,0 7.16,0 11.79,-1.49 16.67,-3.06 1.28,-0.41 2.59,-0.83 3.98,-1.23 l 0.04,-0.01 c 0.03,-0.01 1.46,-0.47 3.4,-0.92 l 6.88,11.34 0.06,0.1 c 0.68,0.97 0.77,1.62 -0.47,3.08 l -3.45,3.72 -5.65,-1.05 -0.05,-0.01 c -2.57,-0.41 -5.32,0.59 -7.02,2.54 z m 1.86,7.92 c -0.62,-2.44 -0.37,-4.39 0.74,-5.66 1.06,-1.21 2.7,-1.59 3.86,-1.42 l 6.55,1.22 0.16,0.03 h 0.92 l 4.63,-5 0.05,-0.04 c 0.79,-0.92 3.19,-3.72 0.74,-7.28 l -6.19,-10.2 c 1.02,-0.14 2.05,-0.24 3,-0.24 h 0.04 c 0.03,0.01 3.14,-0.04 6.46,1.9 0.45,0.97 1.07,2.24 1.77,3.65 1.3,2.64 2.92,5.92 3.37,7.24 0.14,0.41 0.58,1.68 -0.97,3.28 l -11.87,12.53 h -13.26 z m 40.44,0 h -22.43 l 9.61,-10.14 c 1.94,-2.01 2.56,-4.42 1.74,-6.79 -0.47,-1.37 -1.74,-3.98 -3.06,-6.67 3.82,1.77 9.6,3.37 21.37,4.31 1.42,0.12 1.79,0.6 2.07,1.89 l 0.52,5.08 -6.15,1.38 c -2.06,0.41 -3.68,1.76 -4.44,3.72 -0.83,2.17 -0.55,4.72 0.77,7.22 z m 2.46,-5.96 c 0.34,-0.87 1,-1.42 1.91,-1.6 l 9.21,-2.06 -0.84,-8.22 -0.03,-0.17 c -0.22,-1.07 -0.91,-4.35 -5.19,-4.7 -16.46,-1.33 -20.28,-3.77 -24.28,-6.35 0,-0.01 -0.01,-0.02 -0.01,-0.04 l -0.02,0.01 -0.26,-0.17 c -4.27,-2.76 -8.52,-2.78 -8.94,-2.77 -4.66,0 -10.56,1.85 -11.04,2 -1.42,0.42 -2.75,0.85 -4.04,1.26 -5.16,1.66 -9.61,3.09 -17.09,2.87 l -1.36,-0.04 -0.35,1.32 c -0.27,1.02 -2.36,9.29 -0.35,14.6 -1.81,1.43 -1.8,3.07 -1.79,3.3 0.07,1.82 -0.35,2.27 -0.5,2.41 -0.87,0.9 -3.73,1.01 -6.15,1.01 -0.01,0 -0.02,0 -0.03,0 h -0.88 l -0.51,0.71 c -1.49,2.05 -4.7,2.53 -6.77,2 -0.91,-2.75 -0.93,-4.86 -0.06,-6.12 1.04,-1.48 3.22,-1.64 4.11,-1.64 h 0.52 c 2.19,0 3.97,-1.79 3.97,-3.99 v -14.8 c 0.67,-1.03 1.2,-2.22 1.67,-3.55 3.61,-0.57 6.38,-3.64 6.38,-7.32 0,-1.42 -0.42,-2.78 -1.17,-3.95 3.34,-1.61 6.2,-4.89 6.2,-9.2 0,-4.3 -2.17,-6.28 -4.22,-7.57 0.59,-1.65 1.54,-4.56 2.19,-7.49 l 2.89,-10.35 c 1.29,-4.06 4.68,-6.68 8.61,-6.68 h 50.91 c -2.16,3.03 -5.22,4.46 -9.46,4.46 h -30.8 l -1.61,3.45 h 27.61 c -2.17,3.45 -5.35,5.07 -9.86,5.07 h -20.02 l -1.61,3.45 h 17.86 c -2.17,3.32 -5.31,4.89 -9.74,4.89 H 772 l -1.61,3.45 h 11.44 c 0.1,0.14 0.39,0.67 0.39,2.06 0,2.21 -1.86,4.02 -4.15,4.02 -0.79,0 -1.45,-0.18 -2.64,-0.66 -0.51,-0.22 -1.01,-0.43 -1.52,-0.64 l -2.65,2.38 c 0.49,0.21 0.99,0.42 1.48,0.63 v 0 c 2.3,1 3.58,1.52 5.32,1.52 2.1,0 4,-0.87 5.35,-2.27 1.96,0.12 5.12,0.39 8.19,0.64 3.66,0.3 7.11,0.59 8.9,0.68 0.9,0.06 1.74,0.09 2.53,0.13 1.52,0.08 2.91,0.14 4.3,0.25 6.94,11.28 10.51,12.77 23.97,14.38 0.97,1.74 1.84,3.58 2.67,5.42 v 21.97 l 0.01,0.13 c 0.08,1.01 0.08,1.35 -0.06,1.54 -0.47,0.61 -2.54,1.48 -3.26,1.78 l -11.35,4.28 c -1.5,-2.06 -2.04,-4.19 -1.44,-5.72 z"
   class="st0" />
	<polygon
   style="fill:#939598"
   id="polygon28"
   points="713.63,543.32 724.49,546.14 724.49,542.58 713.63,539.77 "
   class="st0" />
	<polygon
   style="fill:#939598"
   id="polygon30"
   points="710.04,539.76 699.18,542.58 699.18,546.14 710.04,543.32 "
   class="st0" />
	<polygon
   style="fill:#939598"
   id="polygon32"
   points="710.04,546.92 699.18,549.74 699.18,553.3 710.04,550.48 "
   class="st0" />
	<polygon
   style="fill:#939598"
   id="polygon34"
   points="713.63,550.48 724.49,553.3 724.49,549.74 713.63,546.92 "
   class="st0" />
	<polygon
   style="fill:#939598"
   id="polygon36"
   points="713.63,557.63 724.49,560.46 724.49,556.9 713.63,554.08 "
   class="st0" />
	<polygon
   style="fill:#939598"
   id="polygon38"
   points="710.04,554.08 699.18,556.9 699.18,560.46 710.04,557.63 "
   class="st0" />
	<path
   style="fill:#939598"
   id="path40"
   d="m 519.11,547.05 c 0,2.49 -1.11,3.73 -3.32,3.73 -0.76,0 -1.45,-0.26 -2.07,-0.77 -0.62,-0.51 -0.93,-1.09 -0.93,-1.74 0,-0.22 0.08,-0.55 0.24,-1.01 0.16,-0.46 0.24,-0.82 0.24,-1.09 0,-0.7 -0.38,-1.05 -1.13,-1.05 -0.65,0 -1.27,0.34 -1.86,1.01 -0.6,0.68 -0.89,1.36 -0.89,2.07 0,0.16 0.14,1.08 0.41,2.75 0.27,1.67 0.41,2.95 0.41,3.81 0,3.67 -1.27,6.75 -3.81,9.24 -2.54,2.49 -5.7,3.73 -9.48,3.73 -0.97,0 -2.76,-0.41 -5.35,-1.22 -0.7,-0.21 -1.16,-0.32 -1.38,-0.32 -1.13,0 -2.16,0.46 -3.08,1.38 -0.92,0.92 -1.38,1.92 -1.38,3 0,2.81 1.7,4.21 5.1,4.21 1.3,0 3.37,-0.24 6.24,-0.73 2.22,-0.38 4.24,-0.57 6.08,-0.57 3.29,0 5.87,0.86 7.74,2.59 1.86,1.73 2.79,4.13 2.79,7.21 0,4.65 -1.98,8.51 -5.95,11.59 -3.97,3.08 -8.98,4.62 -15.03,4.62 -4.48,0 -8.01,-0.9 -10.57,-2.71 -2.57,-1.81 -3.85,-4.31 -3.85,-7.5 0,-3.08 1.19,-5.4 3.56,-6.97 1.19,-0.76 3.08,-1.43 5.67,-2.03 -3.83,-1.51 -5.75,-3.83 -5.75,-6.97 0,-3.89 2.48,-6.59 7.45,-8.1 -3.24,-2.54 -4.86,-5.89 -4.86,-10.05 0,-3.89 1.24,-7.01 3.73,-9.36 2.48,-2.35 5.75,-3.53 9.8,-3.53 2.22,0 4.01,0.3 5.39,0.89 1.38,0.6 2.98,1.78 4.82,3.56 1.73,-2.54 3.86,-3.81 6.4,-3.81 3.08,0.01 4.62,1.38 4.62,4.14 z m -8.83,39.05 c 0,-4.48 -2.64,-6.72 -7.91,-6.72 -1.51,0 -3.73,0.24 -6.66,0.73 -2.94,0.49 -5.13,0.73 -6.58,0.73 -2.75,1.46 -4.12,4.02 -4.12,7.7 0,2.75 0.98,4.97 2.95,6.64 1.97,1.67 4.56,2.51 7.79,2.51 4.09,0 7.53,-1.12 10.33,-3.36 2.8,-2.25 4.2,-4.99 4.2,-8.23 z m -6.24,-31.03 c 0,-7.83 -2.16,-11.75 -6.48,-11.75 -4.21,0 -6.32,3.65 -6.32,10.94 0,8.21 2.24,12.32 6.72,12.32 4.05,0 6.08,-3.84 6.08,-11.51 z"
   class="st0" />
	<path
   style="fill:#939598"
   id="path42"
   d="m 543.88,547.89 c 0,1.24 -0.37,2.28 -1.13,3.09 -0.77,0.81 -1.74,1.21 -2.93,1.21 -0.97,0 -1.78,-0.28 -2.44,-0.85 -0.64,-0.57 -0.97,-1.29 -0.97,-2.16 0,-0.76 0.24,-1.41 0.73,-1.95 0.49,-0.54 0.73,-0.92 0.73,-1.14 0,-0.81 -0.6,-1.21 -1.78,-1.21 -1.52,0 -2.82,0.94 -3.9,2.83 -1.24,2.21 -1.87,6.31 -1.87,12.29 v 16.02 c 0,0.65 0.23,1.06 0.69,1.21 0.46,0.17 1.86,0.27 4.19,0.33 0.6,0.11 0.9,0.33 0.9,0.64 0,0.38 -0.35,0.57 -1.06,0.57 -1.25,0 -2.42,0 -3.5,0 -1.08,0 -3.14,0 -6.17,0 -1.57,0 -2.71,0 -3.42,0 -0.7,0 -1.6,0 -2.68,0 -0.87,0 -1.3,-0.16 -1.3,-0.49 0,-0.33 0.35,-0.49 1.06,-0.49 h 1.14 c 1.84,0 2.92,-0.21 3.25,-0.65 0.11,-0.21 0.16,-1.22 0.16,-3.03 v -22.47 c 0,-3 -0.44,-4.73 -1.34,-5.19 -0.9,-0.47 -2.32,-0.72 -4.27,-0.78 -0.65,0 -0.98,-0.19 -0.98,-0.57 0,-0.38 0.27,-0.57 0.82,-0.57 h 0.56 c 0.81,0 1.63,0.04 2.45,0.12 0.81,0.08 1.16,0.12 1.06,0.12 2,0 4.22,-0.57 6.66,-1.71 l 1.06,-0.49 0.64,-0.24 c 0.21,1.3 0.33,2.61 0.33,3.9 v 1.63 c 1.74,-3.69 4.18,-5.53 7.31,-5.53 1.74,0 3.18,0.53 4.32,1.59 1.12,1.08 1.68,2.4 1.68,3.97 z"
   class="st0" />
	<path
   style="fill:#939598"
   id="path44"
   d="m 586.48,575.86 c 0,0.38 -0.6,0.6 -1.79,0.65 -4.23,0.27 -7.94,1.19 -11.14,2.77 -0.22,0.1 -0.41,0.16 -0.57,0.16 -0.33,0 -0.5,-0.21 -0.5,-0.65 v -4.55 c -2.47,3.47 -5.94,5.2 -10.41,5.2 -3.97,0 -6.83,-1.16 -8.55,-3.48 -0.7,-0.96 -1.11,-1.85 -1.25,-2.66 -0.13,-0.8 -0.2,-2.99 -0.2,-6.54 v -18.49 c 0,-1.89 -0.11,-2.99 -0.33,-3.32 -0.21,-0.32 -0.95,-0.51 -2.2,-0.56 h -1.06 c -1.47,0.1 -2.2,-0.11 -2.2,-0.65 0,-0.38 0.46,-0.57 1.38,-0.57 0.97,0 2.38,0.07 4.22,0.21 0.92,0.07 1.47,0.11 1.63,0.11 1.9,0 3.66,-0.11 5.29,-0.33 v 22.58 c 0,4.16 0.27,6.9 0.81,8.26 0.87,2.1 2.63,3.15 5.29,3.15 2.87,0 4.99,-1.19 6.34,-3.56 0.97,-1.73 1.47,-4.47 1.47,-8.25 V 546 c -0.05,-0.8 -0.35,-1.28 -0.65,-1.41 -0.3,-0.14 -0.91,-0.21 -1.83,-0.21 -2.28,0.06 -3.52,-0.19 -3.52,-0.73 0,-0.33 0.57,-0.49 1.71,-0.49 h 0.74 c 0.43,0 1.87,0 4.31,0 3.25,0 5.26,0 6.02,0 v 22.68 c 0,3.9 0.08,6.37 0.24,7.41 0.16,1.03 0.57,1.63 1.24,1.78 0.67,0.16 2.19,0.24 4.54,0.24 0.64,0.02 0.97,0.22 0.97,0.59 z"
   class="st0" />
	<path
   style="fill:#939598"
   id="path46"
   d="m 623.06,560.58 c 0,5.42 -1.53,9.95 -4.61,13.57 -3.07,3.63 -6.89,5.45 -11.46,5.45 -3.59,0 -6.36,-1.3 -8.32,-3.9 v 18.94 c 0,1.19 0.05,1.9 0.12,2.11 0.08,0.21 0.35,0.41 0.78,0.57 0.82,0.16 2.42,0.24 4.77,0.24 0.66,0 0.99,0.24 0.99,0.73 0,0.38 -0.35,0.57 -1.06,0.57 h -1.55 c -0.37,0 -1,0 -1.87,0 -0.81,0 -1.51,0 -2.11,0 -0.33,0 -1.22,0 -2.68,0 -1.52,0 -2.66,0 -3.42,0 h -4.31 c -1.58,0 -2.36,-0.2 -2.36,-0.6 0,-0.52 0.33,-0.78 0.98,-0.78 h 2.44 c 1.57,0 2.41,-0.35 2.52,-1.06 0.05,-0.33 0.07,-2.82 0.07,-7.48 v -40.49 c 0,-1.52 -0.73,-2.22 -2.2,-2.11 -2.17,0 -3.31,0 -3.41,0 -0.49,0 -0.73,-0.21 -0.73,-0.61 0,-0.52 0.59,-0.78 1.78,-0.78 2.98,0.05 5.69,-0.65 8.13,-2.12 0.71,-0.43 1.25,-0.64 1.63,-0.64 0.43,0 0.71,0.2 0.85,0.61 0.13,0.4 0.23,1.63 0.28,3.7 2.01,-2.88 4.89,-4.31 8.62,-4.31 4.72,0 8.58,1.72 11.58,5.16 3.04,3.45 4.55,7.85 4.55,13.23 z m -7.23,0.03 c 0,-4.24 -0.65,-7.85 -1.96,-10.84 -1.75,-4.13 -4.44,-6.19 -8.09,-6.19 -1.91,0 -3.54,0.66 -4.9,1.99 -1.36,1.34 -2.09,2.95 -2.2,4.85 -0.11,2.39 -0.08,7.42 0.08,15.09 0.06,3.85 0.13,6.17 0.24,6.96 0.11,0.79 0.47,1.6 1.06,2.41 1.58,2.22 3.62,3.33 6.13,3.33 2.83,0 4.95,-1.19 6.37,-3.58 2.17,-3.64 3.27,-8.31 3.27,-14.02 z"
   class="st0" />
	<path
   style="fill:#939598"
   id="path48"
   d="m 659.89,561.06 c 0,5.26 -1.6,9.66 -4.79,13.21 -3.2,3.55 -7.18,5.32 -11.96,5.32 -4.93,0 -9.05,-1.77 -12.36,-5.32 -3.31,-3.55 -4.96,-7.95 -4.96,-13.21 0,-5.42 1.62,-9.92 4.84,-13.5 3.22,-3.58 7.25,-5.36 12.08,-5.36 4.88,0 8.95,1.8 12.23,5.4 3.28,3.61 4.92,8.09 4.92,13.46 z m -7.4,-0.08 c 0,-5.96 -0.92,-10.59 -2.77,-13.9 -1.35,-2.44 -3.63,-3.66 -6.83,-3.66 -3.04,0 -5.41,1.56 -7.12,4.68 -1.7,3.11 -2.56,7.44 -2.56,12.97 0,5.47 0.91,9.74 2.73,12.81 1.81,3.06 4.34,4.6 7.6,4.6 2.48,0 4.33,-0.95 5.52,-2.85 2.29,-3.59 3.43,-8.47 3.43,-14.65 z"
   class="st0" />
</g>
</svg>