<?xml version="1.0" encoding="UTF-8"?>
<svg width="52px" height="50px" viewBox="0 0 52 50" version="1.1" xmlns="http://www.w3.org/2000/svg" xmlns:xlink="http://www.w3.org/1999/xlink">
    <!-- Generator: Sketch 51.2 (57519) - http://www.bohemiancoding.com/sketch -->
    <title>mb</title>
    <desc>Created with Sketch.</desc>
    <defs></defs>
    <g id="HP" stroke="none" stroke-width="1" fill="none" fill-rule="evenodd">
        <g id="homepage_TRQ_1336" transform="translate(-921.000000, -702.000000)">
            <g id="main-block" transform="translate(237.000000, 212.000000)">
                <g id="mb" transform="translate(684.000000, 490.000000)">
                    <path d="M25.6344955,0 L46.9249501,0 C51.7864436,0 51.8349825,5.12885989 51.3398851,7.66103022 C51.0693332,9.36282967 48.1557293,9.34858516 47.8349501,7.66103022 L47.8349501,5.68523352 C47.8349501,4.7828022 47.0904046,4.04376374 46.1808267,4.04376374 L25.6344955,4.04376374 L23.9913462,4.04376374 L5.36209293,4.04376374 C4.45251501,4.04376374 3.70839163,4.7828022 3.70839163,5.68523352 L3.70839163,7.66103022 C3.38761241,9.34858516 0.474008512,9.36282967 0.203456564,7.66103022 C-0.29121876,5.12885989 -0.243523955,0 4.61839163,0 L23.9913462,0 L25.6344955,0 Z M10.5823527,49.1251099 L41.7633592,49.1251099 L43.4107293,49.1251099 C45.7173851,49.1251099 47.6040734,47.1430288 47.6040734,44.720206 L47.6040734,42.6149519 C47.6040734,39.6386882 43.5419955,39.65 43.5419955,42.594842 L43.5419955,43.7448764 C43.5419955,44.4763736 42.9392683,45.0746429 42.2018981,45.0746429 L9.30641111,45.0746429 C8.56946306,45.0746429 7.96673579,44.4763736 7.96673579,43.7448764 L7.96673579,42.6183036 C7.96673579,39.6583791 4.09543708,39.6793269 4.09543708,42.5542033 L4.09543708,44.720206 C4.09543708,47.1430288 5.98254747,49.1251099 8.28878124,49.1251099 L10.5823527,49.1251099 Z" id="path22" fill="#00AF41" fill-rule="evenodd" transform="translate(25.771731, 24.562555) scale(1, -1) translate(-25.771731, -24.562555) "></path>
                    <path d="M46.6657792,24.9559547 C48.939513,23.8943201 50.5092208,21.702761 50.5092208,19.186511 C50.5092208,15.6387912 47.3887987,12.7362637 43.5740584,12.7362637 L32.8832468,12.7362637 C31.8833442,12.7362637 31.0649351,13.4970879 31.0649351,14.4271703 L31.0649351,34.617081 C31.0649351,35.5907349 31.8685714,36.3880082 32.8511688,36.3880082 L41.7557468,36.3880082 C45.5042208,36.3880082 48.571039,33.3468063 48.571039,29.6302473 C48.571039,27.8207761 47.8437987,26.1721841 46.6657792,24.9559547 M38.6863961,26.6003571 L42.0807468,26.6003571 L42.0807468,26.6376442 C43.6263961,26.8730975 44.8200325,28.2070536 44.8200325,29.804533 C44.8200325,31.5666621 43.3672403,33.0087088 41.5919805,33.0087088 L34.7547403,33.0087088 L34.7547403,16.2546566 L43.4250649,16.2546566 C45.2585714,16.2546566 46.7586364,17.7436264 46.7586364,19.5635714 C46.7586364,21.3835165 45.2585714,22.8724863 43.4250649,22.8724863 L42.0807468,22.8724863 L42.0807468,22.8804464 L38.6863961,22.8804464 C37.6556818,22.8804464 36.8123701,23.7171016 36.8123701,24.7401923 C36.8123701,25.763283 37.6556818,26.6003571 38.6863961,26.6003571" id="path26" fill="#00AF41" fill-rule="evenodd" transform="translate(40.787078, 24.562136) scale(1, -1) translate(-40.787078, -24.562136) "></path>
                    <path d="M29.5378354,14.7556103 C29.6631926,13.586304 28.8093289,12.537238 27.6313094,12.4132271 C26.45329,12.2887971 25.3964068,13.1359262 25.2714718,14.3056515 L23.5135172,30.3617229 L17.2870237,14.6621831 L17.2806926,14.6475196 L17.2802705,14.6458438 L17.2802705,14.6454249 L17.2629653,14.6039482 L17.2490367,14.5712696 L17.2456601,14.5633095 L17.2308874,14.5306309 L17.2216016,14.51094 L17.2068289,14.4803562 L17.1996536,14.4661117 L17.1831926,14.4338521 L17.1772835,14.4225402 C17.0624783,14.2076158 16.914751,14.0186666 16.7421211,13.8598823 L16.73579,13.8544359 L16.703712,13.8255279 C16.5914393,13.7266543 16.4673484,13.6395114 16.3327055,13.5645183 L16.3234198,13.5594908 L16.2829004,13.5377051 L16.281212,13.5368672 L16.2436471,13.5175952 L16.2263419,13.5087971 L16.2022835,13.4974853 L16.1765367,13.4857545 L16.1541666,13.4752806 L16.1275757,13.4639688 L16.1043614,13.4543328 L16.0824133,13.4451158 L16.0625757,13.4375746 L16.0511796,13.4329661 L16.0330302,13.4262628 L16.004751,13.4157889 L15.98829,13.4103424 C15.7806276,13.338282 15.5691666,13.299738 15.3593939,13.2921968 L15.3340692,13.2913589 L15.3036796,13.29094 L15.2817315,13.29094 L15.2593614,13.29094 L15.2298159,13.2913589 L15.2028029,13.2921968 C14.9685497,13.300576 14.7313419,13.347918 14.5004653,13.4375746 L14.471764,13.4488864 L14.4645887,13.452238 L14.4358874,13.4635499 L14.4080302,13.4756996 L14.3856601,13.4861735 L14.3616016,13.4970663 L14.3358549,13.5092161 L14.3210822,13.5167573 L14.2818289,13.5364482 L14.2780302,13.538962 L14.2446861,13.5569771 L14.2256926,13.567032 C14.1079328,13.6328081 13.9986146,13.7086391 13.897738,13.7928493 L13.8897185,13.7999716 C13.8656601,13.8205004 13.8420237,13.8406103 13.8188094,13.8619771 L13.8175432,13.8636529 C13.7993939,13.8804111 13.7812445,13.8975883 13.7639393,13.9147655 C13.7466341,13.9323617 13.7289068,13.9499578 13.7120237,13.9679729 L13.7107575,13.9696488 C13.6892315,13.9926913 13.6685497,14.0157339 13.6478679,14.0400334 L13.6406926,14.0479935 C13.5558549,14.148124 13.4798809,14.2566337 13.4136146,14.3735224 L13.4030627,14.3919565 L13.3844913,14.4254729 L13.3828029,14.4296625 L13.3625432,14.4677875 L13.3553679,14.4828699 L13.3431276,14.5080073 L13.3317315,14.5323067 L13.3216016,14.5545114 L13.3093614,14.5821625 L13.2971211,14.6102326 L13.2945887,14.6173548 L13.2827705,14.6458438 L7.04952373,30.3617229 L5.29156918,14.3056515 C5.16621204,13.1359262 4.109751,12.2887971 2.93173152,12.4132271 C1.75328996,12.537238 0.899848403,13.586304 1.02520555,14.7556103 L3.09760814,33.6853012 L3.0984523,33.6903287 L3.09929646,33.6982889 L3.0984523,33.6987078 C3.1233549,33.9190787 3.17020555,34.1386117 3.23773801,34.3539551 C3.30316009,34.5630141 3.39053022,34.7691405 3.49858217,34.9702394 C4.02786788,35.9568809 5.00160165,36.6489963 6.16358217,36.8086185 L6.16780295,36.8094565 C6.20663412,36.8144839 6.24588736,36.8186735 6.28471853,36.8220251 C6.46663412,36.8408782 6.64770555,36.8463246 6.82582243,36.8379455 L6.83426399,36.8375265 L6.83426399,36.8379455 C7.06598477,36.8270526 7.28293282,36.7981446 7.48299775,36.7520595 C8.59137438,36.4952394 9.53303022,35.7298067 9.97621204,34.612451 L15.2817315,21.2364413 L20.5868289,34.612451 C21.0300107,35.7298067 21.9716666,36.4952394 23.0800432,36.7520595 C23.2796861,36.7981446 23.4966341,36.8270526 23.728777,36.8379455 L23.728777,36.8375265 L23.7372185,36.8379455 C23.9157575,36.8463246 24.097251,36.8408782 24.2795887,36.8220251 C24.3179978,36.8186735 24.3564068,36.8144839 24.395238,36.8094565 L24.3994588,36.8086185 C25.5614393,36.6489963 26.5355952,35.9568809 27.0648809,34.9702394 C27.1725107,34.7691405 27.2603029,34.5630141 27.3253029,34.3539551 C27.3928354,34.1386117 27.4396861,33.9194977 27.4645887,33.6987078 L27.4637445,33.6982889 L27.4645887,33.6903287 L27.4654328,33.6853012 L29.5378354,14.7556103 Z" id="path38" fill="#00AF41" fill-rule="nonzero" transform="translate(15.281518, 24.621432) scale(1, -1) translate(-15.281518, -24.621432) "></path>
                    <path d="M11.7713312,60.266408 C11.7713312,60.580625 12.0279545,60.8353503 12.344513,60.8353503 C12.6610714,60.8353503 12.9181169,60.580625 12.9181169,60.266408 L12.9181169,57.1887569 L12.9181169,57.187919 L12.9155844,57.187919 C12.9155844,56.4844918 12.6256169,55.8451648 12.1592208,55.3822184 C11.694513,54.9209478 11.0516883,54.6348008 10.3434416,54.6343819 L10.3434416,54.6318681 L10.3421753,54.6318681 L10.3413312,54.6318681 L10.3413312,54.6343819 C9.63266234,54.6343819 8.98857143,54.9217857 8.52217532,55.3851511 C8.05746753,55.8464217 7.76918831,56.4844918 7.76876623,57.187081 L7.76623377,57.187081 L7.76623377,57.1887569 L7.76623377,60.266408 C7.76623377,60.580625 8.02327922,60.8353503 8.33983766,60.8353503 C8.6563961,60.8353503 8.91301948,60.580625 8.91301948,60.266408 L8.91301948,57.1887569 L8.91301948,57.187081 L8.91090909,57.187081 C8.91090909,56.7987088 9.07256494,56.443853 9.33298701,56.1853571 C9.59214286,55.9285371 9.94922078,55.7680769 10.3413312,55.7680769 L10.3413312,55.7701717 L10.3421753,55.7701717 L10.3434416,55.7701717 L10.3434416,55.7680769 C10.7351299,55.7680769 11.0930519,55.9285371 11.3530519,56.187033 C11.6122078,56.444272 11.7734416,56.7987088 11.7734416,57.187919 L11.7713312,57.187919 L11.7713312,57.1887569 L11.7713312,60.266408 Z" id="path30" fill-rule="nonzero" transform="translate(10.342175, 57.733609) scale(1, -1) translate(-10.342175, -57.733609) "></path>
                    <path d="M17.2448377,55.7701717 C17.5613961,55.7701717 17.8180195,55.5154464 17.8180195,55.2012294 C17.8180195,54.8870124 17.5613961,54.6318681 17.2448377,54.6318681 L15.6620455,54.6318681 L15.6616234,54.6318681 L15.6616234,54.6343819 C15.0681818,54.6343819 14.5291883,54.8752816 14.1387662,55.262397 C13.7504545,55.6486745 13.509026,56.1820055 13.5086039,56.7706387 L13.5064935,56.7706387 L13.5064935,56.7723146 L13.5064935,60.266408 C13.5064935,60.580625 13.7631169,60.8357692 14.0796753,60.8357692 C14.3962338,60.8357692 14.6528571,60.580625 14.6528571,60.266408 L14.6528571,56.7723146 L14.6528571,56.7706387 L14.6507468,56.7706387 C14.6507468,56.4966415 14.7651299,56.2461058 14.9495779,56.063022 C15.1327597,55.881614 15.3847403,55.7680769 15.6616234,55.7680769 L15.6616234,55.7701717 L15.6620455,55.7701717 L17.2448377,55.7701717 Z" id="path34" fill-rule="nonzero" transform="translate(15.662256, 57.733819) scale(1, -1) translate(-15.662256, -57.733819) "></path>
                    <path d="M7.8179463,55.2671444 C7.85508916,54.9554412 7.63012163,54.6726458 7.31651773,54.6357777 C7.00206968,54.5993285 6.71716708,54.8217942 6.68002422,55.1339164 L6.18872552,59.2317255 L4.43710215,55.2001115 C4.31216708,54.9114508 3.9753489,54.7782227 3.68495929,54.9022337 C3.54440734,54.9617255 3.44057617,55.071073 3.38486189,55.2001115 L1.63323851,59.2317255 L1.14151773,55.1339164 C1.10437487,54.8217942 0.819472276,54.5993285 0.505446302,54.6357777 C0.191420328,54.6726458 -0.0331251266,54.9554412 0.00401773055,55.2671444 L0.574245003,60.0252282 C0.61138786,60.3360936 0.802167081,60.5912379 1.0752515,60.7311692 C1.11112812,60.7500222 1.14869306,60.7663615 1.18668007,60.780606 C1.2014528,60.7864714 1.21580344,60.7914988 1.23099825,60.7961074 C1.27953721,60.8111898 1.33609565,60.8237585 1.39982942,60.8321376 L1.39982942,60.8317186 L1.40447228,60.8321376 L1.40953721,60.8329755 C1.70879046,60.8706815 2.00382293,60.7747406 2.21021903,60.5820208 C2.25158267,60.5430579 2.29083591,60.4982296 2.32713461,60.4483738 C2.35161513,60.4140194 2.37440734,60.3784082 2.39382293,60.3415401 C2.40606319,60.3210112 2.41661513,60.3004824 2.42590085,60.2782777 L3.91077098,56.8608532 L5.39564111,60.2782777 C5.51846578,60.5602351 5.77086838,60.7529549 6.06632293,60.8174741 C6.12288137,60.8296238 6.17943981,60.838003 6.23473202,60.8405167 C6.27736189,60.8426115 6.31956968,60.8426115 6.35966708,60.8400977 L6.36346578,60.8396788 C6.37739435,60.8388409 6.39132293,60.837584 6.40567357,60.8359082 L6.41031643,60.8350703 L6.40989435,60.8333944 L6.41242682,60.8329755 C6.71885539,60.7944315 6.97969955,60.6234975 7.12616059,60.3784082 L7.12573851,60.3784082 C7.1565502,60.3272955 7.1814528,60.2728313 7.20171254,60.2162722 C7.2139528,60.1806609 7.22492682,60.1437928 7.2329463,60.1048299 C7.23885539,60.0805304 7.24349825,60.055812 7.2464528,60.0302557 L7.24729695,60.0252282 L7.8179463,55.2671444 Z" id="path42" fill-rule="nonzero" transform="translate(3.910979, 57.736954) scale(1, -1) translate(-3.910979, -57.736954) "></path>
                    <path d="M19.8963312,55.2008104 C19.8963312,54.8865934 19.6397078,54.6318681 19.3231494,54.6318681 C19.0065909,54.6318681 18.7499675,54.8865934 18.7499675,55.2008104 L18.7499675,59.6970467 L17.1186364,59.6970467 C16.8020779,59.6970467 16.5454545,59.9521909 16.5454545,60.266408 C16.5454545,60.580625 16.8020779,60.8353503 17.1186364,60.8353503 L19.3231494,60.8353503 L21.5276623,60.8353503 C21.8442208,60.8353503 22.1008442,60.580625 22.1008442,60.266408 C22.1008442,59.9521909 21.8442208,59.6970467 21.5276623,59.6970467 L19.8963312,59.6970467 L19.8963312,55.2008104 Z" id="path46" fill-rule="nonzero" transform="translate(19.323149, 57.733609) scale(1, -1) translate(-19.323149, -57.733609) "></path>
                    <path d="M23.4320779,55.2008104 C23.4320779,54.8865934 23.1754545,54.6318681 22.8588961,54.6318681 C22.5423377,54.6318681 22.2857143,54.8865934 22.2857143,55.2008104 L22.2857143,60.266408 C22.2857143,60.580625 22.5423377,60.8353503 22.8588961,60.8353503 C23.1754545,60.8353503 23.4320779,60.580625 23.4320779,60.266408 L23.4320779,55.2008104 Z" id="path50" fill-rule="nonzero" transform="translate(22.858896, 57.733609) scale(1, -1) translate(-22.858896, -57.733609) "></path>
                    <path d="M35.1060236,55.2700016 C35.1444326,54.9582983 34.9207313,54.6742461 34.6062833,54.6361211 C34.2922573,54.5979961 34.0069326,54.8204617 33.9685236,55.132165 L33.7667703,56.7392804 L31.7800495,56.7392804 C31.4634911,56.7392804 31.2068677,56.9940057 31.2068677,57.3082227 C31.2068677,57.6224398 31.4634911,57.877584 31.7800495,57.877584 L33.624108,57.877584 L33.5717703,58.2948642 L33.5709262,58.2994727 C33.5692378,58.3128793 33.5679716,58.3262859 33.5675495,58.3392736 C33.5527768,58.4347955 33.5312508,58.5319933 33.5012833,58.630029 C33.4679391,58.7397955 33.4282638,58.8407639 33.3835236,58.9300016 C33.1560236,59.3812172 32.7444976,59.6971101 32.2240755,59.6971101 L32.2185885,59.6971101 L32.2185885,59.6992049 C32.1194002,59.6992049 32.0223223,59.6870551 31.9303093,59.6648505 C31.8437833,59.6443216 31.7581015,59.612062 31.674108,59.5697475 C31.2343028,59.3472818 30.9396924,58.8612928 30.8763807,58.3015675 L30.5176145,55.1388683 C30.4830041,54.8267461 30.1997898,54.6017667 29.8857638,54.6361211 C29.5721599,54.6704755 29.3455041,54.951595 29.3801145,55.2632983 L29.7384586,58.4259975 C29.8444002,59.3598505 30.3665106,60.1856128 31.1549521,60.5836211 C31.3098547,60.6615469 31.479108,60.7243903 31.6614456,60.7675428 C31.8378742,60.8102763 32.0240106,60.832481 32.2185885,60.8328999 L32.2185885,60.8354137 L32.2240755,60.8354137 C33.218069,60.8354137 33.9900495,60.2589301 34.40453,59.4369384 C34.4843028,59.278573 34.5497249,59.1172749 34.5986859,58.954301 C34.642582,58.8089233 34.6759262,58.6539095 34.6991404,58.4909356 C34.7033612,58.4733395 34.7067378,58.4557433 34.7088482,58.4377282 L34.7096924,58.4331197 L35.1060236,55.2700016 Z" id="path54" fill-rule="nonzero" transform="translate(32.243469, 57.733641) scale(1, -1) translate(-32.243469, -57.733641) "></path>
                    <path d="M36.9389935,55.2008104 C36.9389935,54.8865934 36.6823701,54.6318681 36.3658117,54.6318681 C36.0492532,54.6318681 35.7922078,54.8865934 35.7922078,55.2008104 L35.7922078,59.9061058 L35.7922078,59.9082005 C35.7922078,59.9408791 35.7947403,59.9735577 35.8002273,60.0045604 C35.8078247,60.0686607 35.8234416,60.1302473 35.8453896,60.1889011 L35.8462338,60.1905769 L35.8453896,60.1909959 C35.8572078,60.2224176 35.8736688,60.256353 35.8926623,60.2928022 L35.8939286,60.294478 L35.8926623,60.294897 C35.988474,60.4675069 36.1442208,60.6015728 36.340487,60.6686058 C36.3666558,60.6769849 36.3928247,60.6845261 36.4194156,60.6895536 C36.4396753,60.6941621 36.4599351,60.6983516 36.4801948,60.7012843 L36.4848377,60.7021223 L36.4848377,60.7037981 C36.5232468,60.7092445 36.5692532,60.7117582 36.622013,60.7105014 L36.6262338,60.7105014 L36.6363636,60.7105014 L36.6367857,60.7105014 C36.8718831,60.7012843 37.0913636,60.5931937 37.2428896,60.4017308 L40.2940909,56.539375 L40.2940909,60.266408 C40.2940909,60.580625 40.5511364,60.8353503 40.8676948,60.8353503 C41.1842532,60.8353503 41.4408766,60.580625 41.4408766,60.266408 L41.4408766,55.5816415 C41.4408766,55.3340385 41.3286039,55.1103159 41.1416234,54.9586538 C41.1061688,54.9301648 41.0669156,54.9033516 41.0247078,54.8798901 C41.0019156,54.8673214 40.9778571,54.8560096 40.9533766,54.8451168 L40.9470455,54.842603 L40.9457792,54.8421841 C40.9305844,54.8350618 40.9149675,54.8283585 40.8985065,54.8229121 L40.8968182,54.8220742 L40.8968182,54.8229121 L40.8963961,54.8229121 L40.895974,54.823331 L40.8921753,54.8220742 C40.6840909,54.7508516 40.4654545,54.7659341 40.2776299,54.8564286 C40.2527273,54.8669025 40.2282468,54.8794712 40.2037662,54.8945536 C40.1649351,54.9180151 40.126526,54.9469231 40.0902273,54.9787637 C40.0674351,54.9988736 40.0429545,55.024011 40.0172078,55.0545948 L39.9982143,55.0763805 L39.9969481,55.0776374 L39.9973701,55.0780563 L39.9901948,55.0868544 L36.9389935,58.9483723 L36.9389935,55.2008104 Z" id="path58" fill-rule="nonzero" transform="translate(38.616542, 57.733609) scale(1, -1) translate(-38.616542, -57.733609) "></path>
                    <path d="M45.8216234,55.7701717 C46.1381818,55.7701717 46.3948052,55.5154464 46.3948052,55.2012294 C46.3948052,54.8870124 46.1381818,54.6318681 45.8216234,54.6318681 L44.1324675,54.6318681 L44.1316234,54.6318681 L44.1316234,54.6343819 C43.5090584,54.6343819 42.943474,54.8874313 42.5340584,55.2938187 C42.1263312,55.6985302 41.8730844,56.2590934 41.8722403,56.8766346 L41.8701299,56.8766346 L41.8701299,56.8778915 L41.8701299,58.5897459 L41.8701299,58.5905838 L41.8722403,58.5905838 C41.8726623,59.208544 42.1267532,59.770364 42.5365909,60.1767514 C42.9447403,60.581044 43.5090584,60.8328365 44.1307792,60.8332555 L44.1307792,60.8357692 L44.1324675,60.8357692 L45.8216234,60.8357692 C46.1381818,60.8357692 46.3948052,60.580625 46.3948052,60.266408 C46.3948052,59.9521909 46.1381818,59.6974657 45.8216234,59.6974657 L44.1324675,59.6974657 L44.1307792,59.6974657 L44.1307792,59.6995604 C43.8256169,59.6995604 43.5462013,59.5738736 43.3427597,59.3719368 C43.1401623,59.1708379 43.0148052,58.8943269 43.0148052,58.5905838 L43.0164935,58.5905838 L43.0164935,58.5897459 L43.0164935,56.8778915 L43.0164935,56.8766346 L43.0148052,56.8766346 C43.0148052,56.5733104 43.1410065,56.2959615 43.3448701,56.0940247 C43.5470455,55.8933448 43.8256169,55.7680769 44.1316234,55.7680769 L44.1316234,55.7701717 L44.1324675,55.7701717 L45.8216234,55.7701717 Z" id="path62" fill-rule="nonzero" transform="translate(44.132468, 57.733819) scale(1, -1) translate(-44.132468, -57.733819) "></path>
                    <path d="M49.2712662,59.6995604 L49.2712662,59.6974657 L49.2704221,59.6974657 L49.2691558,59.6974657 L49.2691558,59.6995604 C48.8466558,59.6995604 48.4621429,59.5344918 48.1844156,59.2697115 C47.9113312,59.0095398 47.7420779,58.6534272 47.7416558,58.264636 L47.7441883,58.264636 L47.7441883,58.2637981 L47.7441883,57.2038393 L47.7441883,57.2025824 L47.7416558,57.2025824 C47.7420779,56.8142102 47.9113312,56.4589354 48.1835714,56.1987637 C48.4621429,55.9335646 48.8466558,55.7680769 49.27,55.7680769 L49.27,55.7701717 L49.2704221,55.7701717 L49.2721104,55.7701717 L49.2721104,55.7680769 C49.6950325,55.7680769 50.0791234,55.9331456 50.3572727,56.1987637 C50.6299351,56.4585165 50.7996104,56.8142102 50.7996104,57.2034203 L50.7975,57.2034203 L50.7975,57.2038393 L50.7975,58.2637981 L50.7975,58.2650549 L50.7996104,58.2650549 C50.7991883,58.6538462 50.6299351,59.0095398 50.3576948,59.2692926 C50.0791234,59.5344918 49.6946104,59.6995604 49.2712662,59.6995604 Z M49.2704221,60.8357692 L49.2712662,60.8357692 L49.2712662,60.8332555 C50.0023052,60.8332555 50.6679221,60.5471085 51.1503571,60.0875137 C51.6382792,59.6216346 51.9413312,58.9768613 51.9417532,58.2650549 L51.9438636,58.2650549 L51.9438636,58.2637981 L51.9438636,57.2038393 L51.9438636,57.2034203 L51.9417532,57.2034203 C51.9413312,56.4911951 51.6382792,55.8460027 51.1499351,55.3801236 C50.6679221,54.9205288 50.0027273,54.6348008 49.2721104,54.6343819 L49.2721104,54.6318681 L49.2704221,54.6318681 L49.27,54.6318681 L49.27,54.6343819 C48.538961,54.6343819 47.8733442,54.9205288 47.3909091,55.3805426 C46.9034091,55.8460027 46.5999351,56.4907761 46.599513,57.2025824 L46.5974026,57.2025824 L46.5974026,57.2038393 L46.5974026,58.2637981 L46.5974026,58.264636 L46.599513,58.264636 C46.5999351,58.9764423 46.9034091,59.6220536 47.3917532,60.0875137 C47.8737662,60.5471085 48.538961,60.8328365 49.2691558,60.8332555 L49.2691558,60.8357692 L49.2704221,60.8357692 Z" id="path66" fill-rule="nonzero" transform="translate(49.270633, 57.733819) scale(1, -1) translate(-49.270633, -57.733819) "></path>
                    <path d="M25.1203896,59.6974657 L25.1203896,57.7694299 L25.1203896,55.7701717 L27.3350325,55.7701717 L27.3362987,55.7701717 L27.3362987,55.7680769 C27.532987,55.7680769 27.7132143,55.8493544 27.8453247,55.9804876 C27.9761688,56.1099451 28.0572078,56.2888393 28.0572078,56.4844918 L28.0555195,56.4844918 L28.0555195,56.4853297 L28.0555195,56.4870055 L28.0572078,56.4870055 C28.0572078,56.6705082 27.9846104,56.8406044 27.8655844,56.9688049 L27.8436364,56.9897527 C27.711526,57.1213049 27.5312987,57.2025824 27.3358766,57.2025824 L27.3358766,57.2004876 L27.3350325,57.2004876 L26.7833766,57.2004876 L26.7816883,57.2004876 L26.5723377,57.2004876 C26.2562013,57.2004876 25.9991558,57.4560508 25.9991558,57.7694299 C25.9991558,58.0828091 26.2562013,58.3387912 26.5723377,58.3387912 L26.7816883,58.3387912 L26.7833766,58.3387912 L26.8331818,58.3387912 C26.9990584,58.3513599 27.1505844,58.4255151 27.2649675,58.5382143 L27.2658117,58.5373764 L27.2666558,58.5382143 C27.3907468,58.6618063 27.4684091,58.8314835 27.4684091,59.0175 L27.4662987,59.0175 L27.4662987,59.017919 L27.4662987,59.0183379 L27.4662987,59.0195948 L27.4684091,59.0195948 C27.4684091,59.2047734 27.3903247,59.3748695 27.2649675,59.4992995 C27.1408766,59.6224725 26.969513,59.6995604 26.7825325,59.6995604 L26.7825325,59.6974657 L26.7816883,59.6974657 L25.1203896,59.6974657 Z M23.974026,57.7694299 L23.974026,60.2416896 L23.974026,60.2421085 C23.974026,60.3225481 23.9909091,60.399217 24.0208766,60.4683448 C24.0516883,60.5425 24.0972727,60.609114 24.1538312,60.6639973 L24.1610065,60.6702816 L24.1605844,60.6707005 C24.2576623,60.7628709 24.3868182,60.8244574 24.5370779,60.8332555 C24.548474,60.8340934 24.5598701,60.8349313 24.5708442,60.8345124 L24.5708442,60.8357692 L24.5725325,60.8357692 L26.7816883,60.8357692 L26.7825325,60.8357692 L26.7825325,60.8332555 C27.2864935,60.8332555 27.7444481,60.6288049 28.0753571,60.2999245 C28.4054221,59.9723008 28.6101299,59.5194093 28.6105519,59.0195948 L28.6130844,59.0195948 L28.6130844,59.0183379 L28.6130844,59.017919 L28.6130844,59.0175 L28.6105519,59.0175 C28.6105519,58.6630632 28.5067208,58.3320879 28.329026,58.0522253 C28.4467857,57.9780701 28.5561039,57.8917651 28.6544481,57.7945673 C28.6666883,57.7824176 28.6780844,57.7694299 28.6894805,57.7564423 C29.0047727,57.425886 29.1993506,56.9784409 29.1997727,56.4870055 L29.2018831,56.4870055 L29.2018831,56.4853297 L29.2018831,56.4844918 L29.1997727,56.4844918 C29.1997727,55.9746223 28.9895779,55.5112569 28.6514935,55.1756731 C28.3155195,54.8421841 27.8499675,54.6348008 27.3362987,54.6343819 L27.3362987,54.6318681 L27.3350325,54.6318681 L24.5472078,54.6318681 C24.2306494,54.6318681 23.974026,54.8870124 23.974026,55.2012294 L23.974026,57.7694299 Z" id="path70" fill-rule="nonzero" transform="translate(26.587955, 57.733819) scale(1, -1) translate(-26.587955, -57.733819) "></path>
                </g>
            </g>
        </g>
    </g>
</svg>