<?xml version="1.0" encoding="UTF-8"?>
<svg width="27px" height="30px" viewBox="0 0 27 30" version="1.1" xmlns="http://www.w3.org/2000/svg" xmlns:xlink="http://www.w3.org/1999/xlink">
    <!-- Generator: Sketch 51.2 (57519) - http://www.bohemiancoding.com/sketch -->
    <title>Group 11</title>
    <desc>Created with Sketch.</desc>
    <defs></defs>
    <g id="homepage_TUDO////////////////////////////" stroke="none" stroke-width="1" fill="none" fill-rule="evenodd">
        <g id="Workflows_TRQ_desktop" transform="translate(-42.000000, -562.000000)" stroke="#00AF41">
            <g id="Group-2" transform="translate(-61.000000, -250.000000)">
                <g id="Group-11" transform="translate(104.000000, 813.000000)">
                    <path d="M14.9344207,4.17501079 C14.5733143,4.05847272 14.1949723,3.99959881 13.8136876,4.00000206 C11.708004,4.00000206 10,5.79081726 10,7.99979849 C10,10.2087797 11.7071633,11.9999982 13.8136876,11.9999982 C14.2180932,12.0004014 14.6195561,11.9342691 15,11.8036174" id="Stroke-1"></path>
                    <path d="M9,7 L14,7" id="Stroke-3"></path>
                    <path d="M9,9 L14,9" id="Stroke-5"></path>
                    <polyline id="Stroke-7" points="7.69666326 21.4231222 19.4266779 21.4231222 22.9839224 19.3518484 24.1602335 19.2323054 25 20.6700415 24.3037833 21.6710632 20.4825667 23.9975231 13.4418464 27.0134683 2.35660967 28 0 21.0789832 3.42366339 16.7859001 7.29591999 17.0495387 10.9365031 15.0865379 12.3831664 15 13.3397665 16.8076351 12.4354026 17.9982352 8.08863404 20.3424051 7.41713985 21.7612236"></polyline>
                    <polyline id="Stroke-9" points="9.26666667 15.8333333 7.56881289 14.4733325 5.88492094 11.1376354 5 7.42713168 5 3.58271016 13.0002018 0 21 3.58271016 21 7.42713168 20.1158861 11.1376354 18.4323977 14.4733325 15.9245164 17.0581915 13.0002018 19 10.3333333 19"></polyline>
                </g>
            </g>
        </g>
    </g>
</svg>