<?xml version="1.0" encoding="UTF-8"?>
<svg width="91px" height="64px" viewBox="0 0 91 64" version="1.1" xmlns="http://www.w3.org/2000/svg" xmlns:xlink="http://www.w3.org/1999/xlink">
    <!-- Generator: Sketch 51.2 (57519) - http://www.bohemiancoding.com/sketch -->
    <title>Group 27</title>
    <desc>Created with Sketch.</desc>
    <defs></defs>
    <g id="HP" stroke="none" stroke-width="1" fill="none" fill-rule="evenodd">
        <g id="homepage_TRQ_1336" transform="translate(-634.000000, -482.000000)">
            <g id="Group-27" transform="translate(635.000000, 485.000000)">
                <path d="M57,50 L56,55" id="Stroke-1" stroke="#00AF41" stroke-width="2"></path>
                <path d="M64,48 L62,56" id="Stroke-2" stroke="#00AF41" stroke-width="2"></path>
                <path d="M70,49 L68,57" id="Stroke-3" stroke="#00AF41" stroke-width="2"></path>
                <g id="Group-26">
                    <path d="M77.0149678,36.1836372 C77.3922215,34.7194779 78.8945946,33.8409823 80.3711976,34.2206283 C81.8472693,34.6005398 82.7383319,36.0952301 82.3610782,37.5593894 C81.9838245,39.0230177 80.4814513,39.9020442 79.0048484,39.5221327 C77.5287767,39.1422212 76.637714,37.647531 77.0149678,36.1836372" id="Fill-4" fill="#00AF41"></path>
                    <polygon id="Stroke-6" stroke="#00AF41" stroke-width="2" points="11.9154263 55.2372212 9.22682925 59.9997876 5.31343284e-05 59.9997876 5.31343284e-05 40.9779292 6.13175463 34.8929735 49.0563218 34.8929735 55.1877576 40.9779292 55.1877576 59.9997876 45.9612472 59.9997876 43.2726501 55.2372212"></polygon>
                    <path d="M21.2935821,40.8213451 L21.2935821,50.0947965" id="Stroke-8" stroke="#00AF41" stroke-width="2"></path>
                    <path d="M27.5953666,40.8213451 L27.5953666,50.0947965" id="Stroke-10" stroke="#00AF41" stroke-width="2"></path>
                    <path d="M33.8944412,40.8213451 L33.8944412,50.0947965" id="Stroke-12" stroke="#00AF41" stroke-width="2"></path>
                    <path d="M9.22680269,41.9336018 C10.8598863,41.9336018 12.1837281,43.2469646 12.1837281,44.8672301 C12.1837281,46.4874956 10.8598863,47.8011239 9.22680269,47.8011239 C7.5937191,47.8011239 6.26987731,46.4874956 6.26987731,44.8672301 C6.26987731,43.2469646 7.5937191,41.9336018 9.22680269,41.9336018" id="Fill-14" fill="#00AF41"></path>
                    <path d="M45.9612206,41.9336018 C47.5940385,41.9336018 48.918146,43.2469646 48.918146,44.8672301 C48.918146,46.4874956 47.5940385,47.8011239 45.9612206,47.8011239 C44.328137,47.8011239 43.0042952,46.4874956 43.0042952,44.8672301 C43.0042952,43.2469646 44.328137,41.9336018 45.9612206,41.9336018" id="Fill-16" fill="#00AF41"></path>
                    <polyline id="Stroke-18" stroke="#00AF41" stroke-width="2" points="57.8819337 21.6451327 84.8130681 28.5769912 88.9362919 35.5035398 84.5075457 52.6964602 76.1651904 50.5513274 74.8450681 45.6212389 54.994083 40.5132743"></polyline>
                    <polygon id="Stroke-20" stroke="#00AF41" stroke-width="2" points="49.0564015 34.8930265 49.0564015 22.5452389 42.9244343 16.4602832 36.5323746 16.4602832 12.2635358 16.4602832 6.13183433 22.5452389 6.13183433 34.8930265 42.7998343 34.8930265"></polygon>
                    <polyline id="Stroke-22" stroke="#00AF41" stroke-width="2" points="36.5324543 15.849531 32.1621558 7.24510619 43.9792304 10.5212124 50.6714991 0.254840708 53.7426633 12.1194425 65.9848125 12.7805044 57.2389021 21.3663451 62.7887827 32.2937788 50.9743648 29.0176726 49.154514 31.8055487"></polyline>
                    <polyline id="Stroke-24" stroke="#00AF41" stroke-width="2" points="84.8130946 28.5769381 87.6873961 17.4158761 83.5644379 10.4893274 55.8493066 3.35835398 52.0555155 5.57782301"></polyline>
                </g>
            </g>
        </g>
    </g>
</svg>